<svg width="220" height="220" viewBox="0 0 220 220" fill="none" xmlns="http://www.w3.org/2000/svg">
<g clip-path="url(#clip0_1_4)">
<path d="M117.058 116.6C116.146 117.52 115.061 118.251 113.866 118.749C112.67 119.247 111.387 119.504 110.092 119.504C108.796 119.504 107.514 119.247 106.318 118.749C105.122 118.251 104.037 117.52 103.125 116.6L89.4667 102.942L96.4333 95.975L110 109.358L148.5 70.8583L155.925 78.1L117.058 116.6Z" fill="#06DE1C"/>
<path d="M146.667 106.242C144.766 106.441 142.991 107.288 141.639 108.639C140.288 109.991 139.441 111.766 139.242 113.667C138.348 120.215 135.276 126.273 130.52 130.862C125.764 135.452 119.601 138.307 113.025 138.967C107.201 139.547 101.334 138.4 96.1583 135.667C90.5743 132.727 86.0909 128.061 83.3777 122.363C80.6645 116.666 79.8671 110.244 81.1047 104.056C82.3423 97.8681 85.5484 92.2466 90.2441 88.0311C94.9399 83.8155 100.873 81.2321 107.158 80.6667C110.898 80.3198 114.669 80.725 118.25 81.8583C119.856 82.4299 121.599 82.49 123.241 82.0304C124.882 81.5708 126.341 80.6141 127.417 79.2917C128.296 78.2553 128.909 77.0198 129.202 75.6926C129.495 74.3653 129.459 72.9866 129.097 71.6764C128.736 70.3662 128.06 69.1642 127.128 68.1748C126.196 67.1855 125.036 66.4389 123.75 66C116.485 63.6681 108.753 63.1868 101.254 64.5999C93.7563 66.013 86.7295 69.2756 80.8116 74.092C74.8936 78.9083 70.2717 85.1258 67.365 92.1807C64.4584 99.2355 63.359 106.904 64.1667 114.492C64.7288 120.513 66.477 126.364 69.3105 131.706C72.144 137.049 76.0068 141.778 80.6763 145.621C85.3458 149.464 90.7296 152.345 96.5175 154.097C102.305 155.85 108.383 156.44 114.4 155.833C124.847 154.905 134.66 150.421 142.2 143.131C149.741 135.841 154.553 126.185 155.833 115.775C155.963 114.539 155.815 113.29 155.4 112.119C154.985 110.948 154.314 109.885 153.436 109.006C152.557 108.127 151.493 107.456 150.322 107.041C149.151 106.627 147.902 106.479 146.667 106.608V106.242Z" fill="#06DE1C"/>
<path d="M110 165C113.626 165 117.171 166.075 120.185 168.09C123.2 170.104 125.55 172.967 126.938 176.317C128.325 179.667 128.688 183.354 127.981 186.91C127.274 190.466 125.528 193.733 122.964 196.297C120.4 198.861 117.133 200.607 113.577 201.314C110.02 202.022 106.334 201.659 102.984 200.271C99.6342 198.884 96.7709 196.534 94.7564 193.519C92.7419 190.504 91.6667 186.959 91.6667 183.333C91.6667 178.471 93.5982 173.808 97.0364 170.37C100.475 166.932 105.138 165 110 165Z" fill="#AECBFA"/>
<path d="M110 18.3333C113.626 18.3333 117.171 19.4086 120.185 21.4231C123.2 23.4376 125.55 26.3008 126.938 29.6508C128.325 33.0008 128.688 36.687 127.981 40.2433C127.274 43.7997 125.528 47.0663 122.964 49.6303C120.4 52.1943 117.133 53.9403 113.577 54.6477C110.02 55.3551 106.334 54.9921 102.984 53.6045C99.6342 52.2169 96.7709 49.867 94.7564 46.8521C92.7419 43.8372 91.6667 40.2927 91.6667 36.6667C91.6667 31.8044 93.5982 27.1412 97.0364 23.7031C100.475 20.2649 105.138 18.3333 110 18.3333Z" fill="#AECBFA"/>
<path d="M165 183.333C163.198 183.326 161.438 182.787 159.941 181.785C158.443 180.783 157.274 179.362 156.579 177.699C155.885 176.037 155.696 174.206 156.036 172.437C156.376 170.667 157.23 169.037 158.492 167.75L183.333 142.908V77.0917L158.675 52.25C156.968 50.5325 156.009 48.2092 156.009 45.7875C156.009 43.3658 156.968 41.0425 158.675 39.325C159.527 38.4658 160.541 37.7839 161.658 37.3185C162.775 36.8531 163.973 36.6135 165.183 36.6135C166.393 36.6135 167.592 36.8531 168.709 37.3185C169.826 37.7839 170.839 38.4658 171.692 39.325L199.192 66.825C200.841 68.5845 201.73 70.9228 201.667 73.3333V146.667C201.657 149.071 200.702 151.376 199.008 153.083L171.508 180.583C170.659 181.449 169.647 182.139 168.53 182.611C167.413 183.083 166.213 183.328 165 183.333Z" fill="#AF10FE"/>
<path d="M55 183.333C53.7872 183.328 52.5874 183.083 51.4702 182.611C50.353 182.139 49.3406 181.449 48.4917 180.583L20.9917 153.083C19.2982 151.376 18.3435 149.071 18.3333 146.667V73.3333C18.3264 72.1269 18.5576 70.931 19.0138 69.8142C19.4699 68.6974 20.1421 67.6815 20.9917 66.825L48.4917 39.325C49.3438 38.4658 50.3577 37.7839 51.4747 37.3185C52.5918 36.8531 53.7899 36.6135 55 36.6135C56.2101 36.6135 57.4082 36.8531 58.5253 37.3185C59.6423 37.7839 60.6562 38.4658 61.5083 39.325C63.2156 41.0425 64.1739 43.3658 64.1739 45.7875C64.1739 48.2092 63.2156 50.5325 61.5083 52.25L36.6667 77.0917V142.908L61.325 167.75C62.1842 168.602 62.8661 169.616 63.3315 170.733C63.7969 171.85 64.0365 173.048 64.0365 174.258C64.0365 175.468 63.7969 176.667 63.3315 177.784C62.8661 178.901 62.1842 179.914 61.325 180.767C59.6257 182.405 57.3601 183.324 55 183.333Z" fill="#AF10FE"/>
</g>
<defs>
<clipPath id="clip0_1_4">
<rect width="220" height="220" fill="white"/>
</clipPath>
</defs>
</svg>
