<svg width="293" height="250" viewBox="0 0 293 250" fill="none" xmlns="http://www.w3.org/2000/svg">
<path d="M126.1 157.533H96.5985L84.2221 238.765C84.1602 239.17 84.1807 239.586 84.2821 239.982C84.3836 240.379 84.5636 240.746 84.8096 241.06C85.0557 241.373 85.3618 241.625 85.7068 241.798C86.0519 241.97 86.4275 242.06 86.8077 242.059H155.848L142.957 157.533H126.1ZM87.5184 238.582L99.3398 161.007H140.232L152.05 238.582H87.5184Z" fill="#797C7C"/>
<path d="M145.258 157.533H98.8928L86.5333 238.691C86.4705 239.105 86.4915 239.528 86.5949 239.931C86.6982 240.335 86.8815 240.709 87.132 241.029C87.3824 241.348 87.6941 241.605 88.0454 241.781C88.3966 241.957 88.7791 242.048 89.1663 242.048H155.001C155.388 242.048 155.771 241.957 156.122 241.781C156.473 241.605 156.785 241.348 157.035 241.029C157.286 240.709 157.469 240.335 157.573 239.931C157.676 239.528 157.697 239.105 157.634 238.691L145.258 157.533ZM89.8093 238.582L101.627 161.007H142.533L154.355 238.582H89.8093Z" fill="#A9AAAA"/>
<path d="M145.136 157.533H115.638L103.262 238.765C103.2 239.17 103.221 239.585 103.322 239.981C103.423 240.377 103.603 240.745 103.848 241.058C104.094 241.372 104.4 241.624 104.744 241.797C105.089 241.969 105.464 242.059 105.844 242.059H174.884L161.997 157.533H145.136ZM106.555 238.582L118.376 161.007H159.269L171.09 238.582H106.555Z" fill="#797C7C"/>
<path d="M164.298 157.533H117.933L105.591 238.691C105.528 239.105 105.549 239.528 105.652 239.931C105.756 240.335 105.939 240.709 106.189 241.029C106.44 241.348 106.751 241.605 107.103 241.781C107.454 241.957 107.836 242.048 108.224 242.048H174.035C174.422 242.047 174.803 241.955 175.154 241.778C175.504 241.602 175.815 241.345 176.065 241.026C176.314 240.707 176.497 240.333 176.6 239.93C176.703 239.527 176.724 239.104 176.661 238.691L164.298 157.533ZM108.846 238.582L120.668 161.007H161.571L173.392 238.582H108.846Z" fill="#A9AAAA"/>
<path d="M99.1603 58.4794H89.9888L89.2477 48.0897C80.6887 48.0897 77.4364 58.4794 77.4364 58.4794C77.4364 58.4794 55.1642 130.259 99.1603 161.812C99.1603 161.812 128.729 183.28 160.714 156.284L121.988 103.684L99.1603 58.4794Z" fill="#F36316"/>
<path opacity="0.4" d="M99.1603 58.4794H89.9888L89.2477 48.0897C80.6887 48.0897 77.4364 58.4794 77.4364 58.4794C77.4364 58.4794 55.1642 130.259 99.1603 161.812C99.1603 161.812 128.729 183.28 160.714 156.284L121.988 103.684L99.1603 58.4794Z" fill="black"/>
<path d="M126.654 93.2947L103.83 48.0897H90.4726C88.4597 48.088 86.4857 48.6899 84.77 49.8287C83.5288 50.653 82.4524 51.7374 81.6039 53.018C80.7554 54.2985 80.1519 55.7496 79.829 57.2859C75.5309 77.6699 69.5068 126.799 103.834 151.434C103.834 151.434 104.758 152.104 106.453 153.059C108.603 154.26 110.827 155.297 113.11 156.163C120.517 159.03 128.42 160.084 136.249 159.25C144.787 158.294 154.385 154.857 164.244 146.865C164.623 146.561 165.002 146.246 165.384 145.924L158.869 137.072L126.654 93.2947Z" fill="#F36316"/>
<path opacity="0.2" d="M126.654 93.2947L103.83 48.0897H90.4726C88.4597 48.088 86.4857 48.6899 84.77 49.8287C83.5288 50.653 82.4524 51.7374 81.6039 53.018C80.7554 54.2985 80.1519 55.7496 79.829 57.2859C75.5309 77.6699 69.5068 126.799 103.834 151.434C103.834 151.434 104.758 152.104 106.453 153.059C108.603 154.26 110.827 155.297 113.11 156.163C120.517 159.03 128.42 160.084 136.249 159.25C144.787 158.294 154.385 154.857 164.244 146.865C164.623 146.561 165.002 146.246 165.384 145.924L158.869 137.072L126.654 93.2947Z" fill="black"/>
<path d="M126.654 93.2947L103.83 48.0897H90.4726C88.4597 48.088 86.4857 48.6899 84.77 49.8287C82.9881 51.4776 81.7444 53.7035 81.2233 56.1767C76.9218 76.5643 70.9011 125.69 105.228 150.324C105.228 150.324 106.152 150.994 107.848 151.95C109.997 153.152 112.221 154.189 114.505 155.054C121.914 157.915 129.818 158.963 137.646 158.122C145.769 157.211 154.873 154.047 164.237 146.846C164.616 146.543 164.995 146.228 165.377 145.906L158.863 137.054L126.654 93.2947Z" fill="#F36316"/>
<path opacity="0.2" d="M103.831 48.0897H96.1348C96.1348 48.0897 94.1042 50.1911 98.4361 62.3673L94.1685 83.3809C94.1685 83.3809 87.9312 88.2536 90.5338 94.759C93.1363 101.264 89.8975 113.796 97.5765 116.102C97.5765 116.102 93.2514 143.01 106.45 153.041C108.457 154.544 110.72 155.599 113.107 156.145L113.358 156.204C134.807 161.033 154.788 148.227 154.788 148.227L158.87 137.035L126.655 93.2947L103.831 48.0897Z" fill="black"/>
<path d="M133.481 60.654C131.05 55.9456 127.07 52.3988 122.333 50.7183L124.881 63.4729L127.673 66.3613L134.459 64.432L133.968 62.5393L133.481 60.654Z" fill="#51CEA4"/>
<path d="M131.941 61.9097C129.474 59.574 122.654 51.6042 122.654 51.6042L110.417 52.0252C105.002 60.1451 102.396 82.6817 101.137 102.509C101.137 102.641 101.137 102.773 101.113 102.905C100.142 118.416 99.9929 132.192 99.9692 136.01C99.9692 136.611 99.9692 136.962 99.9692 137.039C108.836 121.659 135.711 118.288 135.711 118.288C135.711 118.288 133.68 105.742 134.357 94.7774C134.655 89.9413 135.481 85.4091 137.237 82.3998C138.351 80.5893 139.061 78.5242 139.312 76.3666C139.985 69.6489 134.902 64.7103 131.941 61.9097Z" fill="#51CEA4"/>
<g opacity="0.2">
<path d="M127.321 83.9337C117.107 83.3443 121.47 87.2066 131.494 86.9503C131.494 86.9503 134.929 85.6617 134.313 93.5399C134.267 93.9517 134.286 94.369 134.371 94.7737C134.668 89.9376 135.494 85.4054 137.251 82.3961C138.364 80.5856 139.074 78.5205 139.325 76.3629C139.325 76.3629 137.532 84.5195 127.321 83.9337Z" fill="black"/>
<path d="M130.404 60.3428L134.459 64.4284L133.968 62.5357L130.404 60.3428Z" fill="black"/>
</g>
<path opacity="0.2" d="M101.137 102.506C101.137 102.637 101.137 102.769 101.113 102.901C100.142 118.412 99.9929 132.188 99.9692 136.007C99.9692 136.007 101.079 113.356 130.766 106.789L106.542 102.279L101.137 102.506Z" fill="black"/>
<path opacity="0.2" d="M113.713 76.3666C113.713 76.3666 106.667 85.3651 106.416 86.0314C106.166 86.6977 102.971 94.7847 102.971 94.7847V98.3247L109.804 100.357L126.929 99.0972L130.712 89.2603L113.605 92.5771L113.713 76.3666Z" fill="black"/>
<path d="M149.715 85.0613C146.575 86.4085 143.87 85.8228 138.567 84.2412C133.264 82.6597 130.712 89.253 130.712 89.253L111.344 94.7773L111.452 91.208L97.5765 87.99L94.9875 90.6185C94.9875 90.6185 89.8636 116.589 105.252 114.019C120.512 111.456 136.466 104.53 136.726 104.42C136.726 104.42 149.966 103.688 151.79 98.1747C152.392 96.3039 152.852 83.7141 149.715 85.0613Z" fill="#F5AE97"/>
<path d="M97.5765 87.99L94.9875 90.6186C94.9875 90.6186 89.8636 116.589 105.252 114.019C120.512 111.456 136.466 104.53 136.726 104.42L114.024 110.739C88.1918 119.163 97.5765 87.99 97.5765 87.99Z" fill="#ED856E"/>
<path d="M112.271 88.1804C110.579 86.8698 107.08 82.1252 107.08 82.1252L98.5951 82.7366L95.5492 85.054C95.5492 85.054 91.0312 88.1438 92.5034 90.2049C93.9755 92.266 97.7186 87.9497 100.883 91.9548C104.047 95.9598 108.971 89.3482 111.777 92.1891C114.583 95.0299 113.977 89.4873 112.271 88.1804Z" fill="#075445"/>
<path d="M104.88 57.7436C102.914 59.2386 101.547 61.4854 101.055 64.0293L95.5626 85.0649C95.5626 85.0649 103.394 82.1069 112.271 88.1804L114.64 66.7714C114.769 65.3209 114.62 63.8573 114.203 62.4717C113.786 61.086 113.11 59.8081 112.217 58.7174C110.538 56.7075 108.081 55.3493 104.88 57.7436Z" fill="#51CEA4"/>
<path d="M131.349 26.8711L131.071 19.3443L120.607 17.2063L119.429 16.9647L118.789 18.235L112.126 31.3594C112.126 31.3594 107.262 28.2879 106.471 34.0025C106.105 36.686 107.716 38.3956 109.361 39.4353C109.621 39.5891 109.875 39.7465 110.122 39.8637C110.729 40.1785 111.358 40.4393 112.004 40.6434C112.149 40.686 112.281 40.7716 112.384 40.8906C112.486 41.0096 112.557 41.1573 112.586 41.317C112.586 41.317 114.4 47.9653 112.105 50.3302C112.105 50.3302 114.972 55.7703 119.28 55.9314C123.588 56.0925 122.915 51.6115 122.326 50.7073C121.988 50.1874 121.893 49.0489 121.886 48.0385C121.879 47.0281 121.96 46.1494 121.96 46.1494C122.637 46.6839 124.309 46.6437 124.309 46.6437C132.228 46.5192 131.477 30.4698 131.477 30.4698L131.349 26.8711Z" fill="#F5AE97"/>
<path d="M111.005 34.0867V34.0538C111.048 33.8864 111.042 33.7091 110.989 33.5453C110.936 33.3815 110.838 33.2389 110.709 33.1365C110.579 33.0342 110.424 32.9767 110.264 32.9718C110.103 32.967 109.945 33.0149 109.811 33.1093C109.313 33.4754 108.921 34.2076 109.418 35.7598C110.383 38.7398 111.835 37.3047 111.665 36.3895C111.496 35.4742 110.708 35.1447 111.005 34.0867Z" fill="#ED856E"/>
<path d="M121.585 29.7925C121.138 29.9304 120.735 30.2019 120.424 30.5759C120.256 30.7499 120.123 30.9585 120.031 31.1892C119.939 31.42 119.891 31.6683 119.889 31.9195C119.885 32.0373 119.924 32.1521 119.996 32.2401C120.069 32.3281 120.17 32.3824 120.278 32.3917C120.333 32.3952 120.387 32.3871 120.438 32.3678C120.49 32.3485 120.537 32.3184 120.578 32.2793C120.618 32.2402 120.651 32.1928 120.675 32.1398C120.698 32.0869 120.712 32.0294 120.715 31.9707C120.678 31.385 121.263 30.8212 121.754 30.6675C122.009 30.58 122.283 30.589 122.532 30.6931C122.746 30.7816 122.923 30.9506 123.03 31.169C123.055 31.2212 123.09 31.2674 123.132 31.3051C123.174 31.3428 123.222 31.3712 123.274 31.3888C123.326 31.4063 123.381 31.4125 123.435 31.4072C123.489 31.4018 123.542 31.3849 123.59 31.3575C123.638 31.3301 123.681 31.2927 123.716 31.2474C123.751 31.2022 123.777 31.1499 123.793 31.0936C123.809 31.0374 123.815 30.9782 123.81 30.9195C123.805 30.8609 123.79 30.8038 123.764 30.7517C123.554 30.3495 123.224 30.036 122.829 29.8619C122.433 29.6878 121.995 29.6633 121.585 29.7925Z" fill="#072C35"/>
<path d="M129.443 29.0017C128.607 28.826 127.792 29.4447 127.345 30.1623C127.279 30.2564 127.249 30.3745 127.262 30.4918C127.274 30.6092 127.328 30.7167 127.413 30.7919C127.499 30.8652 127.609 30.8986 127.718 30.8849C127.827 30.8712 127.926 30.8115 127.995 30.7187C128.286 30.2501 128.777 29.7925 129.277 29.8767C129.523 29.9276 129.75 30.051 129.935 30.2332C130.12 30.4154 130.254 30.6494 130.323 30.9091C130.337 31.027 130.394 31.1342 130.481 31.207C130.568 31.2798 130.678 31.3122 130.787 31.2971C130.896 31.2821 130.995 31.2208 131.062 31.1267C131.129 31.0327 131.159 30.9136 131.146 30.7956C131.055 30.3492 130.846 29.9414 130.543 29.6225C130.24 29.3037 129.858 29.0878 129.443 29.0017Z" fill="#072C35"/>
<path d="M129.03 31.59C128.624 31.6266 128.333 32.2197 128.384 32.9189C128.434 33.6181 128.803 34.16 129.209 34.127C129.616 34.0941 129.886 33.4973 129.853 32.7981C129.819 32.0989 129.433 31.5571 129.03 31.59Z" fill="#072C35"/>
<path d="M122.289 32.0806C121.859 32.1135 121.554 32.7432 121.612 33.4827C121.669 34.2222 122.052 34.7897 122.481 34.753C122.911 34.7164 123.212 34.0904 123.158 33.3546C123.104 32.6187 122.715 32.044 122.289 32.0806Z" fill="#072C35"/>
<path d="M110.136 39.8783C110.744 40.185 111.375 40.4384 112.021 40.6361C112.021 40.6361 113.794 40.6361 113.95 38.8386C113.842 39.0253 112.677 40.8118 110.136 39.8783Z" fill="#ED856E"/>
<path d="M126.573 16.8402L111.452 25.6264L112.129 31.3704C114.051 29.7522 117.774 29.6131 117.774 29.6131C127.183 28.8809 127.25 23.957 127.25 23.957C129.538 28.1817 131.274 27.2958 131.274 27.2958L129.958 16.2728L126.573 16.8402Z" fill="#ED856E"/>
<path d="M133.629 22.3316C131.687 8.78619 125.467 12.9962 125.467 12.9962C120.85 7.03627 113.053 7.84167 107.486 12.081C103.448 15.1452 100.588 19.9996 100.971 25.3701C101.885 38.1577 98.9403 44.8059 98.9403 44.8059C96.1753 50.8208 98.1924 56.0376 99.9014 58.915C100.472 59.8495 101.131 60.717 101.868 61.5033C101.868 61.5033 105.357 57.4763 110.274 63.2056C113.533 66.9947 116.955 67.2656 118.891 67.013C119.053 66.991 119.207 66.9233 119.337 66.8166C119.467 66.7098 119.569 66.5679 119.633 66.405C119.696 66.2421 119.719 66.064 119.699 65.8886C119.678 65.7132 119.616 65.5467 119.517 65.4058C115.259 59.2555 113.53 45.6369 113.151 42.1957C113.118 41.8583 113 41.5372 112.811 41.2664C112.622 40.9956 112.369 40.7854 112.078 40.6581C111.977 40.6136 111.871 40.5828 111.763 40.5666C111.763 40.5666 109.323 39.6001 108.01 38.37C107.676 38.0618 107.383 37.7044 107.14 37.3084C106.661 36.5162 106.413 35.5862 106.43 34.6395C106.432 33.9885 106.539 33.3429 106.748 32.7322C108.071 28.8297 112.126 31.3411 112.126 31.3411C112.464 30.4405 113.517 29.8254 114.562 29.4228C115.693 29.001 116.876 28.7677 118.072 28.7308C126.888 28.3647 127.067 21.5554 127.067 21.5554C127.067 21.5554 127.9 25.5092 131.274 27.2811C131.576 29.7843 131.621 32.3161 131.406 34.8299C131.224 37.3458 130.682 39.8159 129.798 42.1517C129.761 42.2433 129.724 42.3421 129.68 42.43C129.68 42.4519 129.656 42.4922 129.639 42.5398C128.435 45.2855 126.709 46.2666 125.199 46.5265C124.111 46.7068 122.998 46.5808 121.967 46.1604C121.69 47.6866 121.817 49.2665 122.333 50.7183C125.508 51.9582 128.376 53.9754 130.712 56.6123C131.786 57.8254 132.716 59.1781 133.481 60.6393C133.481 60.6393 136.408 58.5892 134.496 50.678C133.037 44.5826 135.159 33.0434 133.629 22.3316Z" fill="#0E4959"/>
<path d="M120.228 20.8928C119.338 21.4666 118.346 21.8297 117.317 21.9582C109.933 22.8331 110.62 28.1158 110.62 28.1158C110.62 26.4867 111.767 25.4214 112.897 24.7624C113.879 24.2093 114.957 23.8851 116.062 23.8106C122.688 23.2614 123.507 17.9238 123.507 17.9238C122.851 19.0624 121.392 20.1533 120.228 20.8928Z" fill="#06252C"/>
<path d="M117.513 42.7778C117.856 43.9377 118.417 45.0084 119.161 45.9225C119.905 46.8367 120.815 47.5745 121.835 48.0897L121.886 48.0495C121.886 47.0391 121.96 46.1604 121.96 46.1604C121.96 46.1604 119.26 45.0988 117.513 42.7778Z" fill="#ED856E"/>
<path d="M126.912 19.2381C126.912 19.2381 124.881 26.7979 118.113 26.8784C111.344 26.959 111.736 30.0817 111.736 30.0817C111.736 30.0817 105.489 27.5191 106.386 34.6542H106.416C106.418 34.0032 106.526 33.3575 106.734 32.7469C108.058 28.8443 112.112 31.3557 112.112 31.3557C112.451 30.4551 113.503 29.8401 114.549 29.4374C115.679 29.0156 116.863 28.7823 118.058 28.7455C126.874 28.3794 127.054 21.5701 127.054 21.5701C127.054 21.5701 127.886 25.5239 131.261 27.2958C129.386 25.9193 126.912 19.2381 126.912 19.2381Z" fill="#06252C"/>
<path d="M132.567 33.4937C129.944 52.135 133.799 55.1736 133.799 55.1736C132.012 52.351 132.567 33.4937 132.567 33.4937Z" fill="#06252C"/>
<path d="M113.151 42.1993C113.117 41.862 113 41.5408 112.811 41.27C112.622 40.9993 112.369 40.789 112.078 40.6617C111.977 40.6173 111.871 40.5865 111.763 40.5702C111.763 40.5702 109.323 39.6037 108.01 38.3737C107.676 38.0654 107.383 37.7081 107.14 37.312C107.14 37.312 106.771 39.6477 112.071 42.2323C112.071 42.2323 111.323 53.9289 115.584 62.3673C119.845 70.8057 110.944 53.7385 99.9013 58.8638C100.469 59.8161 101.128 60.7009 101.868 61.5033C101.868 61.5033 105.357 57.4763 110.274 63.2056C113.533 66.9947 116.955 67.2656 118.891 67.013C119.053 66.991 119.207 66.9233 119.337 66.8166C119.467 66.7098 119.569 66.5679 119.633 66.405C119.696 66.2421 119.719 66.064 119.699 65.8886C119.678 65.7132 119.616 65.5467 119.517 65.4058C115.259 59.2592 113.53 45.6442 113.151 42.1993Z" fill="#06252C"/>
<path d="M125.199 46.5375C124.111 46.7178 122.997 46.5917 121.967 46.1714C121.69 47.6976 121.817 49.2775 122.333 50.7293C125.508 51.9692 128.376 53.9864 130.712 56.6233L129.724 52.9404C129.724 52.9404 127.555 49.8543 125.199 46.5375Z" fill="#06252C"/>
<path d="M100.335 46.8816C98.4631 52.4352 101.655 55.763 101.655 55.763C101.655 55.763 99.827 50.8354 101.485 46.5851C101.873 45.6176 102.184 44.6157 102.413 43.5905C102.846 41.588 103.384 38.5421 103.181 36.5505C102.423 40.0526 101.473 43.5024 100.335 46.8816Z" fill="#06252C"/>
<path d="M106.091 40.0028C103.827 49.1001 106.822 53.9545 106.822 53.9545C105.475 45.7614 106.091 40.0028 106.091 40.0028Z" fill="#06252C"/>
<path d="M126.736 38.7471C126.471 38.6473 126.19 38.6081 125.91 38.6317C125.63 38.6554 125.358 38.7415 125.111 38.8846C124.863 39.0276 124.646 39.2246 124.473 39.4631C124.299 39.7015 124.173 39.9763 124.103 40.27C123.707 41.6758 124.268 43.1072 125.362 43.4697C126.455 43.8321 127.663 42.9828 128.069 41.577C128.475 40.1712 127.829 39.1095 126.736 38.7471Z" fill="#CB6655"/>
<path d="M197.271 76.3666H145.667C145.076 76.3665 144.501 76.5773 144.032 76.9665C143.563 77.3557 143.225 77.9015 143.072 78.5192L134.093 114.762C133.986 115.193 133.972 115.645 134.053 116.082C134.133 116.52 134.305 116.931 134.556 117.285C134.807 117.639 135.13 117.926 135.5 118.123C135.87 118.321 136.277 118.423 136.689 118.423H188.289C188.881 118.424 189.456 118.213 189.926 117.824C190.395 117.435 190.732 116.889 190.885 116.271L199.864 80.0055C199.968 79.5764 199.979 79.1273 199.898 78.6925C199.816 78.2578 199.644 77.849 199.393 77.4976C199.143 77.1463 198.822 76.8616 198.454 76.6656C198.086 76.4695 197.682 76.3672 197.271 76.3666Z" fill="#F36316"/>
<path opacity="0.4" d="M197.271 76.3666H145.667C145.076 76.3665 144.501 76.5773 144.032 76.9665C143.563 77.3557 143.225 77.9015 143.072 78.5192L134.093 114.762C133.986 115.193 133.972 115.645 134.053 116.082C134.133 116.52 134.305 116.931 134.556 117.285C134.807 117.639 135.13 117.926 135.5 118.123C135.87 118.321 136.277 118.423 136.689 118.423H188.289C188.881 118.424 189.456 118.213 189.926 117.824C190.395 117.435 190.732 116.889 190.885 116.271L199.864 80.0055C199.968 79.5764 199.979 79.1273 199.898 78.6925C199.816 78.2578 199.644 77.849 199.393 77.4976C199.143 77.1463 198.822 76.8616 198.454 76.6656C198.086 76.4695 197.682 76.3672 197.271 76.3666Z" fill="black"/>
<path d="M199.427 76.3666H147.823C147.232 76.3665 146.657 76.5773 146.188 76.9665C145.719 77.3557 145.381 77.9015 145.228 78.5192L136.249 114.762C136.142 115.193 136.128 115.644 136.208 116.081C136.288 116.519 136.46 116.93 136.711 117.284C136.962 117.638 137.284 117.925 137.653 118.122C138.023 118.32 138.429 118.423 138.841 118.423H190.445C191.037 118.424 191.612 118.213 192.081 117.824C192.551 117.435 192.888 116.889 193.041 116.271L202.02 80.0055C202.124 79.5764 202.135 79.1273 202.054 78.6925C201.972 78.2578 201.8 77.849 201.549 77.4976C201.299 77.1463 200.978 76.8616 200.61 76.6656C200.242 76.4695 199.837 76.3672 199.427 76.3666Z" fill="#F36316"/>
<path opacity="0.2" d="M199.427 76.3666H147.823C147.232 76.3665 146.657 76.5773 146.188 76.9665C145.719 77.3557 145.381 77.9015 145.228 78.5192L136.249 114.762C136.142 115.193 136.128 115.644 136.208 116.081C136.288 116.519 136.46 116.93 136.711 117.284C136.962 117.638 137.284 117.925 137.653 118.122C138.023 118.32 138.429 118.423 138.841 118.423H190.445C191.037 118.424 191.612 118.213 192.081 117.824C192.551 117.435 192.888 116.889 193.041 116.271L202.02 80.0055C202.124 79.5764 202.135 79.1273 202.054 78.6925C201.972 78.2578 201.8 77.849 201.549 77.4976C201.299 77.1463 200.978 76.8616 200.61 76.6656C200.242 76.4695 199.837 76.3672 199.427 76.3666Z" fill="black"/>
<path opacity="0.2" d="M199.427 78.684H147.823C147.704 78.6835 147.588 78.7255 147.493 78.8037C147.398 78.8818 147.33 78.9915 147.299 79.116L138.317 115.381C138.294 115.468 138.291 115.559 138.308 115.648C138.324 115.736 138.36 115.819 138.411 115.89C138.461 115.962 138.526 116.021 138.601 116.061C138.675 116.102 138.758 116.122 138.841 116.12H190.445C190.565 116.121 190.681 116.078 190.776 115.999C190.871 115.92 190.939 115.81 190.97 115.685L199.952 79.4418C199.972 79.3552 199.974 79.2646 199.958 79.1771C199.941 79.0895 199.906 79.0072 199.855 78.9365C199.805 78.8658 199.74 78.8087 199.666 78.7693C199.591 78.73 199.51 78.7095 199.427 78.7096V78.684Z" fill="black"/>
<path d="M198.364 78.684H147.823C147.704 78.6835 147.588 78.7255 147.493 78.8037C147.398 78.8818 147.33 78.9915 147.299 79.116L138.317 115.381C138.294 115.468 138.291 115.559 138.308 115.648C138.324 115.736 138.36 115.819 138.411 115.89C138.461 115.962 138.526 116.021 138.601 116.061C138.675 116.102 138.758 116.122 138.841 116.12H189.383C189.502 116.12 189.619 116.078 189.714 115.999C189.81 115.92 189.879 115.81 189.91 115.685L198.889 79.4418C198.91 79.3552 198.912 79.2646 198.895 79.1771C198.878 79.0895 198.843 79.0072 198.793 78.9365C198.742 78.8658 198.677 78.8087 198.603 78.7693C198.529 78.73 198.447 78.7095 198.364 78.7096V78.684Z" fill="#F36316"/>
<path d="M188.296 227.917C188.296 227.917 170.488 213.79 157.837 212.011H157.722L155.204 210.546L154.263 212.626C151.911 216.045 169.286 230.476 181.338 233.647C186.529 235.012 188.689 234.379 189.409 233.131L189.474 232.98L189.491 232.947L190.432 230.868L189.416 230.279C189.136 229.444 188.759 228.651 188.296 227.917Z" fill="#075445"/>
<path d="M174.61 216.096C169.466 213.208 163.733 210.627 158.795 209.931C150.077 208.701 157.756 217.67 168.058 224.575C172.688 227.687 177.852 230.381 182.289 231.531C188.438 233.149 190.337 231.97 190.621 230.271C190.96 228.364 189.24 225.805 189.24 225.805C184.574 222.211 179.686 218.967 174.61 216.096Z" fill="#51CEA4"/>
<path opacity="0.2" d="M174.61 216.096C169.466 213.208 163.733 210.627 158.795 209.931C150.077 208.701 157.756 217.67 168.058 224.575C172.688 227.687 177.852 230.381 182.289 231.531C188.438 233.149 190.337 231.97 190.621 230.271C190.96 228.364 189.24 225.805 189.24 225.805C184.574 222.211 179.686 218.967 174.61 216.096Z" fill="black"/>
<path d="M187.785 221.485C187.436 221.157 187.069 220.851 186.689 220.566C180.861 216.173 178.296 206.699 178.296 206.699C178.296 206.699 164.877 196.1 164.288 199.889C164.044 201.464 162.91 202.73 161.733 204.114C160.074 206.065 158.348 208.247 158.873 211.842C159.794 218 170.799 217.378 178.076 224.634C185.352 231.889 187.582 227.493 187.582 227.493C187.582 227.493 191.826 225.296 187.785 221.485Z" fill="#F5AE97"/>
<path d="M187.785 221.485C187.914 221.628 190.466 224.461 187.447 226.651C187.447 226.651 187.542 224.703 185.965 223.982C185.965 223.982 188.066 227.024 185.305 227.965C182.543 228.906 177.453 221.412 174.597 220.577C171.74 219.743 160.098 214.658 159.58 212.263C159.063 209.869 164.092 205.6 164.092 205.6L161.723 204.11C160.064 206.062 158.338 208.244 158.863 211.839C159.784 217.996 170.789 217.374 178.066 224.63C185.342 231.886 187.572 227.489 187.572 227.489C187.572 227.489 191.826 225.296 187.785 221.485Z" fill="#ED856E"/>
<path d="M183.487 214.075C181.142 210.993 177.673 213.021 174.61 216.096C171.358 219.362 169.533 224.461 169.043 225.249C173.676 228.36 177.842 230.407 182.289 231.575C188.438 233.193 190.337 232.014 190.621 230.315C192.296 223.264 183.487 214.075 183.487 214.075Z" fill="#51CEA4"/>
<path d="M176.871 140.671C176.518 138.086 175.342 135.716 173.544 133.971C171.71 132.181 166.833 131.482 164.163 131.482C161.411 131.482 158.772 132.664 156.826 134.769C154.88 136.874 153.787 139.729 153.787 142.706L152.883 206.494C154.105 207.166 155.367 207.75 156.66 208.244C171.321 213.859 184.093 205.568 184.093 205.568L176.986 140.66L176.871 140.671Z" fill="#075445"/>
<path opacity="0.2" d="M176.871 140.671C176.518 138.086 175.342 135.716 173.544 133.971C171.71 132.181 166.833 131.482 164.163 131.482C161.411 131.482 158.772 132.664 156.826 134.769C154.88 136.874 153.787 139.729 153.787 142.706L152.883 206.494C154.105 207.166 155.367 207.75 156.66 208.244C171.321 213.859 184.093 205.568 184.093 205.568L176.986 140.66L176.871 140.671Z" fill="black"/>
<path d="M176.87 140.671C176.518 138.086 175.341 135.716 173.544 133.971C172.519 133.618 171.451 133.439 170.376 133.44C164.646 133.44 157.556 138.851 157.556 145.053L156.659 208.244C171.32 213.859 184.093 205.568 184.093 205.568L176.986 140.66L176.87 140.671Z" fill="#075445"/>
<path d="M168.633 208.467L168.565 207.079L168.995 207.058L169.059 208.445L168.633 208.467ZM168.501 205.692L168.437 204.301L168.877 204.279L168.944 205.666L168.501 205.692ZM168.372 202.913L168.305 201.526L168.735 201.504L168.799 202.891L168.372 202.913ZM168.24 200.138L168.176 198.747L168.603 198.725L168.667 200.113L168.24 200.138ZM168.109 197.36L168.044 195.972L168.471 195.95L168.538 197.323L168.109 197.36ZM167.98 194.585L167.912 193.194L168.342 193.172L168.406 194.559L167.98 194.585ZM167.848 191.806L167.784 190.419L168.21 190.397L168.278 191.784L167.848 191.806ZM167.719 189.031L167.652 187.64L168.081 187.618L168.146 189.006L167.719 189.031ZM167.587 186.253L167.523 184.876L167.949 184.854L168.014 186.242L167.587 186.253ZM167.455 183.478L167.391 182.086L167.817 182.064L167.885 183.452L167.455 183.478ZM167.327 180.699L167.259 179.311L167.689 179.286L167.753 180.677L167.327 180.699ZM167.185 177.92L167.12 176.529L167.547 176.507L167.614 177.895L167.185 177.92ZM167.056 175.142L166.988 173.754L167.418 173.729L167.482 175.12L167.056 175.142ZM166.924 172.367L166.86 170.976L167.286 170.954L167.35 172.341L166.924 172.367ZM166.792 169.588L166.728 168.201L167.154 168.175L167.222 169.566L166.792 169.588ZM166.663 166.813L166.596 165.422L167.026 165.4L167.09 166.787L166.663 166.813ZM166.531 164.034L166.467 162.647L166.894 162.621L166.961 164.013L166.531 164.034ZM166.403 161.259L166.335 159.868L166.765 159.846L166.829 161.234L166.403 161.259ZM166.271 158.481L166.207 157.093L166.633 157.068L166.697 158.459L166.271 158.481ZM166.139 155.706L166.075 154.315L166.504 154.293L166.569 155.68L166.139 155.706ZM166.01 152.927L165.946 151.54L166.372 151.514L166.437 152.905L166.01 152.927ZM165.878 150.152L165.814 148.761L166.24 148.739L166.308 150.127L165.878 150.152ZM165.75 147.374L165.682 145.986L166.112 145.961L166.176 147.352L165.75 147.374ZM165.628 144.606L165.563 143.215L165.99 143.193L166.054 144.58L165.628 144.606ZM165.492 141.824L165.428 140.436L165.858 140.411L165.922 141.802L165.492 141.824ZM165.364 139.049L165.3 137.658L165.726 137.636L165.79 139.023L165.364 139.049ZM165.232 136.27L165.168 134.883L165.594 134.857L165.662 136.248L165.232 136.27Z" fill="#51CEA4"/>
<path d="M224.874 186.582C224.111 186.446 223.383 186.139 222.735 185.681C218.779 182.782 206.555 194.57 206.555 194.57C206.555 194.57 210.308 197.967 211.11 203.323C211.892 208.507 215.351 211.743 219.774 207.918C219.919 207.793 220.062 207.662 220.211 207.522L238.408 190.133L234.533 184.51C234.533 184.51 228.986 187.391 224.874 186.582Z" fill="#F5AE97"/>
<path d="M247.329 181.638L214.096 213.387L216.424 216.238L249.657 184.489L247.329 181.638Z" fill="#075445"/>
<path d="M228.729 183.079C226.055 189.43 232.046 196.214 232.046 196.214L247.319 181.618C237.105 175.072 228.729 183.079 228.729 183.079Z" fill="#51CEA4"/>
<path d="M135.711 118.288C135.711 118.288 115.973 118.127 103.079 132.13C101.958 133.344 100.915 134.641 99.9589 136.01C99.9589 136.01 103.401 162.691 128.387 154.117C153.374 145.543 164.362 140.865 164.362 140.865L201.657 200.014C204.885 199.352 208.026 198.267 211.012 196.785C217.33 193.673 224.766 187.83 226.163 177.309C226.163 177.309 188.506 128.359 179.676 115.029C179.683 115.029 173.727 106.423 135.711 118.288Z" fill="#075445"/>
<path opacity="0.2" d="M126.272 149.984C108.789 151.247 103.225 132.466 103.225 132.466L103.09 132.13C101.968 133.344 100.926 134.641 99.9692 136.01C99.9692 136.01 103.411 162.691 128.397 154.117C153.384 145.543 164.373 140.865 164.373 140.865L201.668 200.014C204.895 199.352 208.036 198.267 211.022 196.785V196.741L165.385 132.891C165.385 132.891 143.755 148.717 126.272 149.984Z" fill="black"/>
<path d="M216.257 189.423L215.476 188.325L215.814 188.043L216.596 189.141L216.257 189.423ZM214.694 187.226L213.912 186.128L214.25 185.846L215.029 186.944L214.694 187.226ZM213.13 185.03L212.349 183.932L212.687 183.65L213.469 184.748L213.13 185.03ZM211.567 182.833L210.785 181.735L211.123 181.453L211.905 182.551L211.567 182.833ZM210.003 180.637L209.221 179.538L209.56 179.257L210.342 180.355L210.003 180.637ZM208.44 178.44L207.658 177.342L207.996 177.06L208.778 178.158L208.44 178.44ZM206.876 176.244L206.094 175.145L206.433 174.863L207.215 175.962L206.876 176.244ZM205.316 174.047L204.534 172.949L204.873 172.667L205.654 173.765L205.316 174.047ZM203.752 171.851L202.971 170.752L203.309 170.47L204.091 171.569L203.752 171.851ZM202.189 169.654L201.407 168.556L201.745 168.274L202.527 169.372L202.189 169.654ZM200.625 167.457L199.843 166.359L200.182 166.077L200.964 167.176L200.625 167.457ZM199.062 165.261L198.28 164.163L198.618 163.881L199.4 164.979L199.062 165.261ZM197.498 163.064L196.716 161.966L197.055 161.684L197.833 162.782L197.498 163.064ZM195.935 160.868L195.153 159.77L195.491 159.488L196.273 160.586L195.935 160.868ZM194.371 158.671L193.583 157.419L193.921 157.137L194.703 158.236L194.371 158.671ZM192.808 156.475L192.026 155.376L192.364 155.095L193.146 156.193L192.808 156.475ZM191.244 154.278L190.462 153.18L190.801 152.902L191.582 154L191.244 154.278ZM189.68 152.082L188.899 150.983L189.237 150.701L190.019 151.8L189.68 152.082ZM188.12 149.885L187.338 148.787L187.677 148.505L188.459 149.603L188.12 149.885ZM186.557 147.689L185.775 146.59L186.113 146.308L186.895 147.407L186.557 147.689ZM184.993 145.492L184.211 144.394L184.55 144.112L185.332 145.21L184.993 145.492ZM183.43 143.295L182.648 142.197L182.986 141.915L183.768 143.014L183.43 143.295ZM181.866 141.099L181.084 140.001L181.423 139.719L182.204 140.817L181.866 141.099ZM180.303 138.902L179.521 137.804L179.859 137.522L180.638 138.62L180.303 138.902ZM178.739 136.706L177.957 135.607L178.296 135.329L179.077 136.428L178.739 136.706ZM125.338 136.585V136.124C125.751 136.124 126.177 136.091 126.604 136.047L126.644 136.508C126.194 136.299 125.758 136.325 125.335 136.332L125.338 136.585ZM124.035 136.545C123.598 136.508 123.162 136.449 122.742 136.369L122.817 135.915C123.223 135.992 123.642 136.047 124.065 136.083L124.035 136.545ZM127.927 136.325L127.856 135.867L128.357 135.769L129.111 135.604L129.196 136.058L128.441 136.223L127.927 136.325ZM121.466 135.82C121.047 135.689 120.635 135.534 120.231 135.355L120.393 134.927C120.783 135.099 121.18 135.249 121.585 135.373L121.466 135.82ZM130.455 135.531L130.36 135.077C130.766 134.981 131.186 134.875 131.612 134.765L131.711 135.216L130.455 135.531ZM132.963 134.89L132.861 134.44L134.107 134.103L134.215 134.549L132.963 134.89ZM119.053 134.747C118.671 134.525 118.301 134.281 117.943 134.015L118.19 133.649C118.534 133.915 118.891 134.159 119.26 134.381L119.053 134.747ZM177.172 134.264L176.39 133.166L176.729 132.884L177.51 133.982L177.172 134.264ZM135.46 134.202L135.352 133.751L136.594 133.385L136.706 133.832L135.46 134.202ZM137.948 133.47L137.833 133.023L139.071 132.657L139.187 133.103L137.948 133.47ZM116.914 133.125C116.593 132.818 116.275 132.488 115.977 132.144L116.288 131.826C116.577 132.158 116.88 132.475 117.199 132.774L116.914 133.125ZM140.425 132.715L140.307 132.269L141.542 131.884L141.66 132.331L140.425 132.715ZM175.622 132.053L174.84 130.954L175.179 130.673L175.96 131.771L175.622 132.053ZM142.909 131.939L142.791 131.496L144.019 131.101L144.141 131.544L142.909 131.939ZM145.373 131.145L145.251 130.702L146.48 130.296L146.605 130.738L145.373 131.145ZM115.141 131.072C114.877 130.706 114.623 130.321 114.383 129.922L114.742 129.669C114.975 130.058 115.222 130.431 115.476 130.768L115.141 131.072ZM147.84 130.339L147.712 129.896L148.94 129.486L149.069 129.929L147.84 130.339ZM174.058 129.853L173.277 128.754L173.615 128.472L174.397 129.571L174.058 129.853ZM150.297 129.512L150.169 129.069L151.394 128.652L151.526 129.095L150.297 129.512ZM113.713 128.699C113.506 128.293 113.31 127.868 113.127 127.44L113.52 127.246C113.696 127.667 113.885 128.081 114.089 128.476L113.713 128.699ZM152.751 128.652L152.622 128.212L153.847 127.788L153.976 128.231L152.751 128.652ZM155.201 127.802L155.069 127.363L156.294 126.935L156.426 127.374L155.201 127.802ZM172.495 127.623L171.886 126.763L171.717 126.532L172.055 126.236L172.238 126.481L172.847 127.341L172.495 127.623ZM157.651 126.942L157.516 126.503L158.738 126.071L158.873 126.51L157.651 126.942ZM112.64 126.133C112.484 125.689 112.352 125.235 112.244 124.775L112.66 124.669C112.766 125.111 112.894 125.548 113.043 125.976L112.64 126.133ZM160.078 126.074L159.943 125.635L161.164 125.196L161.3 125.635L160.078 126.074ZM170.816 125.591C170.493 125.313 170.146 125.068 169.781 124.859L169.98 124.449C170.37 124.675 170.74 124.94 171.084 125.24L170.816 125.591ZM162.525 125.203L162.389 124.764L163.608 124.321L163.743 124.76L162.525 125.203ZM168.637 124.343C168.239 124.213 167.831 124.125 167.418 124.079L167.462 123.618C167.902 123.666 168.336 123.76 168.759 123.9L168.637 124.343ZM164.958 124.325L164.836 123.878C165.26 123.744 165.696 123.654 166.136 123.611L166.176 124.072C165.764 124.109 165.356 124.192 164.958 124.317V124.325Z" fill="#51CEA4"/>
<path d="M223.239 26.732V71.8271L214.247 71.5708L207.028 76.4398L209.022 72.0541H154.162V26.732H223.239Z" fill="#51CEA4"/>
<path d="M154.162 26.732H152.446V72.0541H154.162V26.732Z" fill="#51CEA4"/>
<path opacity="0.2" d="M154.162 26.732H152.446V72.0541H154.162V26.732Z" fill="black"/>
<path d="M204.944 45.183H174.867V52.4609H204.944V45.183Z" fill="white"/>
<path d="M179.145 50.0666C179.702 50.0666 180.153 49.5782 180.153 48.9757C180.153 48.3732 179.702 47.8847 179.145 47.8847C178.588 47.8847 178.136 48.3732 178.136 48.9757C178.136 49.5782 178.588 50.0666 179.145 50.0666Z" fill="#51CEA4"/>
<path d="M184.141 49.858C184.698 49.858 185.149 49.3695 185.149 48.767C185.149 48.1645 184.698 47.6761 184.141 47.6761C183.584 47.6761 183.132 48.1645 183.132 48.767C183.132 49.3695 183.584 49.858 184.141 49.858Z" fill="#51CEA4"/>
<path d="M189.332 50.0666C189.889 50.0666 190.341 49.5782 190.341 48.9757C190.341 48.3732 189.889 47.8847 189.332 47.8847C188.775 47.8847 188.323 48.3732 188.323 48.9757C188.323 49.5782 188.775 50.0666 189.332 50.0666Z" fill="#51CEA4"/>
<path d="M194.327 50.0666C194.884 50.0666 195.336 49.5782 195.336 48.9757C195.336 48.3732 194.884 47.8847 194.327 47.8847C193.77 47.8847 193.319 48.3732 193.319 48.9757C193.319 49.5782 193.77 50.0666 194.327 50.0666Z" fill="#51CEA4"/>
<path d="M199.515 49.858C200.072 49.858 200.523 49.3695 200.523 48.767C200.523 48.1645 200.072 47.6761 199.515 47.6761C198.958 47.6761 198.506 48.1645 198.506 48.767C198.506 49.3695 198.958 49.858 199.515 49.858Z" fill="#51CEA4"/>
<path d="M194.378 58.4867H185.152V60.3575H194.378V58.4867Z" fill="#075445"/>
<path d="M89.0075 163.449C86.2526 153.52 84.4251 147.183 84.2931 145.027C84.2931 145.027 80.99 154.179 79.061 159.374C74.7934 170.829 73.7781 179.751 78.1777 189.141C78.1777 189.141 78.2014 194.266 78.242 194.504C78.2826 194.742 83.1323 199.739 83.1323 199.739L90.4289 194.881L89.9314 186.318C89.9314 186.318 91.7555 173.373 89.0075 163.449Z" fill="#166D4D"/>
<path d="M81.1559 200.007L85.0851 201.361C85.0851 201.361 86.4388 173.904 84.5876 157.818C84.5876 157.818 84.6756 186.685 81.1559 200.007Z" fill="#12563A"/>
<path d="M86.2051 199.886C86.2051 199.886 79.3552 179.751 62.7078 174.56C57.3132 172.883 50.8966 172.777 43.3529 175.435C43.3529 175.435 52.6259 172.649 57.76 183.514C57.9461 183.91 58.1255 184.323 58.3048 184.755C63.2967 197.074 69.8453 203.942 74.0283 205.71C76.5666 206.783 79.7038 209.551 81.7818 211.568C83.1355 212.871 84.0222 213.852 84.0222 213.852L86.2592 213.457L86.2356 206.322L86.2051 199.886Z" fill="#208C68"/>
<path d="M56.8564 175.621C57.1543 175.742 66.6709 179.71 81.792 211.571C83.1458 212.875 84.0324 213.856 84.0324 213.856L86.2695 213.46L86.2458 206.325C82.4486 198.872 71.2804 179.26 56.8564 175.621Z" fill="#166D4D"/>
<path d="M94.2292 173.853C80.208 183.199 78.6851 203.547 78.6851 203.547L80.1809 209.441L81.8426 215.994L83.9849 215.741C83.9849 215.741 84.5738 214.592 85.4977 213.028C86.9259 210.616 89.146 207.215 91.2172 205.531C94.6319 202.752 99.0011 194.654 100.673 181.991C100.73 181.545 100.798 181.116 100.879 180.706C103.011 169.332 112.166 169.321 112.166 169.321C104.626 168.958 98.7709 170.825 94.2292 173.853Z" fill="#31A683"/>
<path d="M80.1812 209.441L81.8429 215.994L83.9852 215.741C83.9852 215.741 84.574 214.592 85.498 213.028C91.8097 179.67 99.6004 173.399 99.8474 173.209C87.4812 180.516 81.9004 201.566 80.1812 209.441Z" fill="#208C68"/>
<path d="M80.3975 206.82C76.3364 202.426 69.5881 197.631 61.3168 201.284C50.24 206.172 47.8811 220.61 47.3803 226.061C47.3657 226.208 47.3946 226.357 47.4628 226.485C47.531 226.613 47.635 226.714 47.7598 226.774C47.8846 226.835 48.0239 226.851 48.1576 226.82C48.2913 226.789 48.4125 226.713 48.5039 226.603C52.7004 221.599 66.7791 206.702 81.2775 212.736C81.8189 212.96 82.3604 213.214 82.9019 213.497C83.0921 213.601 83.2988 213.666 83.5111 213.687C83.6951 213.724 83.8851 213.7 84.056 213.617C84.227 213.535 84.3709 213.399 84.4689 213.226C84.5489 213.053 84.5854 212.861 84.5747 212.668C84.564 212.475 84.5065 212.289 84.4079 212.128C83.239 210.218 81.8954 208.439 80.3975 206.82Z" fill="#31A683"/>
<path d="M53.3469 214.072C54.3926 212.534 66.0381 197.092 81.2776 212.736C81.8191 212.96 82.3606 213.214 82.9021 213.497C83.0922 213.601 83.2989 213.666 83.5112 213.687C83.6953 213.724 83.8852 213.7 84.0562 213.617C84.2271 213.535 84.371 213.399 84.469 213.226C84.549 213.053 84.5856 212.861 84.5749 212.668C84.5642 212.475 84.5066 212.289 84.4081 212.128C84.4081 212.128 67.8385 192.289 53.3469 214.072Z" fill="#208C68"/>
<path d="M53.2893 214.163L53.3124 214.123C53.3054 214.137 53.2977 214.151 53.2893 214.163Z" fill="#3C7219"/>
<path d="M99.6815 191.923C90.0497 193.109 85.9344 201.471 84.1847 207.951C83.5361 210.336 83.1109 212.785 82.9156 215.262C82.8983 215.47 82.9328 215.68 83.0155 215.869C83.0982 216.058 83.2261 216.22 83.386 216.338C83.5625 216.446 83.7648 216.494 83.9669 216.476C84.1689 216.459 84.3615 216.376 84.5198 216.239C84.7105 216.097 84.8756 215.918 85.0071 215.712C85.3828 215.137 85.7787 214.588 86.1848 214.072C97.0789 200.16 117.659 206.384 124.069 208.793C124.209 208.846 124.361 208.849 124.503 208.803C124.645 208.757 124.77 208.664 124.86 208.536C124.95 208.409 125 208.254 125.004 208.093C125.008 207.933 124.965 207.776 124.881 207.643C121.784 202.745 112.579 190.331 99.6815 191.923Z" fill="#208C68"/>
<path d="M84.1847 207.94C83.5354 210.328 83.1103 212.781 82.9156 215.262C82.8983 215.47 82.9328 215.68 83.0155 215.869C83.0982 216.058 83.2261 216.22 83.386 216.338C83.5625 216.446 83.7648 216.494 83.9669 216.476C84.169 216.459 84.3615 216.376 84.5198 216.239C84.7105 216.097 84.8756 215.918 85.0071 215.712C85.3828 215.137 85.7787 214.588 86.1849 214.072C93.231 190.331 112.071 198.941 113.473 199.619C96.1449 190.536 87.8398 200.252 84.1847 207.94Z" fill="#166D4D"/>
<path d="M54.4536 191.861C76.2181 197.455 82.5772 211.414 82.5772 211.414C75.2502 195.02 54.4536 191.861 54.4536 191.861Z" fill="#03211B"/>
<path d="M57.0866 188.592C57.0529 188.562 57.0115 188.544 56.968 188.541C56.9245 188.537 56.8812 188.549 56.844 188.573C56.8068 188.598 56.7775 188.634 56.7604 188.678C56.7432 188.721 56.7389 188.769 56.7482 188.815C57.0663 190.869 57.9259 191.378 58.3219 191.528C58.3503 191.537 58.3803 191.54 58.4098 191.536C58.4393 191.532 58.4677 191.521 58.4932 191.505C58.5187 191.488 58.5407 191.466 58.5578 191.44C58.575 191.414 58.5868 191.384 58.5926 191.352C58.6705 190.906 58.6298 189.844 57.0866 188.592Z" fill="#03211B"/>
<path d="M59.4996 189.269C59.4679 189.242 59.4298 189.226 59.3898 189.222C59.3498 189.218 59.3096 189.227 59.2739 189.247C59.2383 189.267 59.2087 189.298 59.1887 189.335C59.1688 189.373 59.1592 189.416 59.1612 189.46C59.3304 191.539 60.146 192.136 60.5352 192.3C60.5629 192.312 60.5926 192.318 60.6223 192.316C60.6521 192.315 60.6812 192.307 60.7078 192.292C60.7343 192.278 60.7577 192.257 60.7764 192.232C60.7951 192.207 60.8086 192.178 60.8161 192.147C60.9176 191.711 60.9481 190.649 59.4996 189.269Z" fill="#03211B"/>
<path d="M61.8753 190.547C61.7433 192.403 62.3795 193.058 62.6977 193.271C62.7204 193.285 62.7457 193.295 62.7721 193.298C62.7985 193.302 62.8252 193.299 62.8506 193.29C62.8759 193.282 62.8992 193.267 62.919 193.248C62.9387 193.229 62.9544 193.205 62.965 193.179C63.1207 192.813 63.3035 191.879 62.2103 190.433C62.1863 190.402 62.1542 190.379 62.1181 190.367C62.082 190.356 62.0435 190.356 62.0075 190.368C61.9716 190.38 61.9398 190.404 61.9162 190.436C61.8927 190.467 61.8784 190.506 61.8753 190.547Z" fill="#03211B"/>
<path d="M64.3797 191.414C63.9093 193.208 64.4135 193.977 64.6876 194.259C64.7072 194.279 64.7305 194.294 64.756 194.303C64.7814 194.312 64.8084 194.315 64.8351 194.312C64.8618 194.309 64.8875 194.3 64.9106 194.285C64.9336 194.27 64.9534 194.25 64.9685 194.226C65.1851 193.9 65.5303 193.025 64.7283 191.374C64.7104 191.338 64.6831 191.309 64.6498 191.29C64.6165 191.271 64.5789 191.264 64.5415 191.268C64.5041 191.272 64.4688 191.288 64.44 191.315C64.4112 191.341 64.3902 191.375 64.3797 191.414Z" fill="#03211B"/>
<path d="M66.7961 192.498C66.1192 194.091 66.4813 194.892 66.7013 195.192C66.7181 195.212 66.7385 195.228 66.7612 195.239C66.784 195.25 66.8085 195.255 66.8333 195.255C66.8581 195.255 66.8827 195.25 66.9054 195.239C66.9281 195.228 66.9485 195.212 66.9653 195.192C67.2123 194.918 67.6422 194.16 67.1244 192.502C67.1119 192.466 67.0896 192.435 67.0606 192.413C67.0315 192.391 66.9969 192.379 66.9614 192.378C66.9259 192.378 66.8911 192.389 66.8616 192.41C66.8321 192.432 66.8092 192.462 66.7961 192.498Z" fill="#03211B"/>
<path d="M69.7371 193.252C68.4003 194.244 68.336 195.138 68.3833 195.515C68.3868 195.541 68.3955 195.567 68.4088 195.59C68.4221 195.613 68.4397 195.632 68.4605 195.647C68.4813 195.662 68.5048 195.672 68.5294 195.676C68.5541 195.68 68.5792 195.679 68.6033 195.672C68.9418 195.577 69.6795 195.167 70.0112 193.45C70.0193 193.412 70.0166 193.373 70.0034 193.337C69.9902 193.301 69.9672 193.27 69.9374 193.248C69.9076 193.227 69.8725 193.216 69.8367 193.216C69.8009 193.217 69.7661 193.23 69.7371 193.252Z" fill="#03211B"/>
<path d="M57.117 193.574C56.7244 193.417 55.7632 193.267 54.3317 194.673C54.3001 194.703 54.278 194.744 54.2682 194.789C54.2584 194.834 54.2614 194.88 54.2768 194.923C54.2922 194.966 54.3193 195.003 54.3545 195.029C54.3897 195.055 54.4313 195.068 54.4738 195.068C56.4029 195.097 57.0358 194.281 57.2287 193.878C57.2403 193.85 57.2467 193.82 57.2473 193.79C57.248 193.759 57.243 193.729 57.2325 193.701C57.2221 193.672 57.2065 193.646 57.1867 193.625C57.1668 193.603 57.1431 193.586 57.117 193.574Z" fill="#03211B"/>
<path d="M59.2965 194.413C58.8971 194.288 57.9123 194.222 56.589 195.756C56.5661 195.79 56.5523 195.831 56.5491 195.873C56.5459 195.915 56.5534 195.957 56.5709 195.995C56.5883 196.033 56.615 196.064 56.648 196.087C56.6811 196.109 56.7192 196.122 56.7582 196.122C58.6873 195.987 59.2558 195.119 59.4217 194.702C59.4393 194.646 59.4362 194.584 59.4128 194.53C59.3895 194.476 59.3478 194.434 59.2965 194.413Z" fill="#03211B"/>
<path d="M61.5673 195.083C61.195 195.039 60.3185 195.138 59.3777 196.701C59.3567 196.735 59.3457 196.774 59.3461 196.815C59.3465 196.856 59.3583 196.895 59.3799 196.929C59.4015 196.962 59.432 196.987 59.4672 197.002C59.5024 197.016 59.5408 197.018 59.5773 197.008C61.2695 196.58 61.6418 195.723 61.7297 195.332C61.7356 195.304 61.736 195.275 61.7308 195.246C61.7257 195.218 61.7151 195.191 61.6998 195.168C61.6844 195.145 61.6647 195.125 61.6419 195.11C61.6191 195.095 61.5937 195.086 61.5673 195.083Z" fill="#03211B"/>
<path d="M63.7063 195.614C63.334 195.646 62.4913 195.932 61.8551 197.664C61.8409 197.702 61.8376 197.743 61.8455 197.783C61.8534 197.823 61.8722 197.86 61.8996 197.888C61.9269 197.917 61.9614 197.936 61.9987 197.942C62.036 197.949 62.0744 197.944 62.1089 197.927C63.6758 197.147 63.8958 196.225 63.9093 195.822C63.9104 195.794 63.9058 195.765 63.8959 195.738C63.8859 195.712 63.8708 195.688 63.8516 195.668C63.8323 195.648 63.8094 195.633 63.7844 195.624C63.7593 195.614 63.7327 195.611 63.7063 195.614Z" fill="#03211B"/>
<path d="M65.483 196.639C65.1446 196.796 64.417 197.341 64.2951 199.201C64.2931 199.242 64.3022 199.282 64.3211 199.316C64.3401 199.351 64.3682 199.379 64.4018 199.397C64.4355 199.414 64.4732 199.421 64.5102 199.415C64.5472 199.41 64.5819 199.393 64.6099 199.366C65.8858 198.114 65.8384 197.169 65.7369 196.774C65.7302 196.746 65.718 196.719 65.7011 196.697C65.6842 196.674 65.6629 196.656 65.6388 196.643C65.6147 196.63 65.5883 196.623 65.5614 196.622C65.5345 196.622 65.5078 196.627 65.483 196.639Z" fill="#03211B"/>
<path d="M67.6558 197.576C67.3174 197.766 66.6574 198.385 66.6947 200.248C66.6949 200.291 66.7071 200.332 66.7296 200.367C66.7521 200.401 66.7839 200.428 66.8206 200.442C66.8574 200.457 66.8974 200.459 66.9353 200.449C66.9733 200.438 67.0074 200.416 67.0331 200.384C68.1905 199.003 68.0484 198.059 67.9265 197.682C67.9169 197.654 67.9018 197.629 67.8824 197.608C67.8629 197.588 67.8395 197.571 67.8138 197.561C67.788 197.551 67.7606 197.547 67.7333 197.55C67.7061 197.552 67.6796 197.561 67.6558 197.576Z" fill="#03211B"/>
<path d="M84.6754 212.238C84.6754 212.238 86.5368 192.469 110.251 175.31C110.251 175.31 86.6891 189.108 84.6754 212.238Z" fill="#03211B"/>
<path d="M105.76 172.667C104.43 174.907 104.819 176.196 105.083 176.694C105.102 176.729 105.128 176.76 105.16 176.784C105.191 176.807 105.226 176.824 105.263 176.832C105.301 176.84 105.339 176.839 105.376 176.83C105.414 176.821 105.448 176.803 105.479 176.778C105.902 176.412 106.707 175.383 106.247 172.769C106.236 172.714 106.209 172.663 106.172 172.623C106.134 172.583 106.086 172.556 106.034 172.545C105.983 172.535 105.929 172.54 105.88 172.562C105.831 172.583 105.79 172.62 105.76 172.667Z" fill="#03211B"/>
<path d="M103.154 174.644C101.99 176.987 102.477 178.242 102.778 178.715C102.8 178.748 102.828 178.777 102.861 178.798C102.894 178.819 102.93 178.832 102.968 178.836C103.006 178.841 103.044 178.837 103.08 178.824C103.116 178.811 103.149 178.79 103.177 178.762C103.573 178.378 104.301 177.272 103.651 174.706C103.637 174.65 103.607 174.6 103.566 174.563C103.525 174.525 103.475 174.501 103.422 174.495C103.368 174.488 103.315 174.499 103.267 174.525C103.219 174.552 103.18 174.593 103.154 174.644Z" fill="#03211B"/>
<path d="M100.389 177.338C99.6849 179.59 100.284 180.633 100.616 180.999C100.639 181.026 100.668 181.046 100.7 181.06C100.732 181.073 100.766 181.079 100.8 181.077C100.834 181.075 100.867 181.065 100.897 181.048C100.927 181.031 100.954 181.006 100.974 180.977C101.272 180.574 101.763 179.484 100.836 177.316C100.816 177.269 100.783 177.228 100.742 177.201C100.701 177.174 100.654 177.16 100.605 177.163C100.557 177.165 100.511 177.183 100.472 177.214C100.433 177.246 100.404 177.289 100.389 177.338Z" fill="#03211B"/>
<path d="M97.766 179.678C97.4885 182.039 98.2601 182.917 98.6561 183.203C98.6838 183.222 98.7148 183.234 98.7472 183.24C98.7796 183.245 98.8126 183.243 98.8443 183.234C98.876 183.225 98.9057 183.21 98.9315 183.188C98.9573 183.166 98.9788 183.139 98.9945 183.108C99.2077 182.647 99.492 181.475 98.1891 179.557C98.1599 179.518 98.121 179.489 98.0771 179.474C98.0333 179.458 97.9862 179.457 97.9416 179.47C97.897 179.483 97.8567 179.509 97.8256 179.546C97.7944 179.583 97.7738 179.628 97.766 179.678Z" fill="#03211B"/>
<path d="M95.3733 182.196C95.4275 184.433 96.2634 185.125 96.6695 185.337C96.6986 185.352 96.7302 185.36 96.7623 185.36C96.7944 185.361 96.8262 185.354 96.8557 185.34C96.8851 185.326 96.9115 185.306 96.9331 185.28C96.9547 185.254 96.9709 185.224 96.9809 185.191C97.1196 184.73 97.2246 183.595 95.7591 182.017C95.727 181.983 95.6862 181.96 95.642 181.951C95.5977 181.942 95.5519 181.947 95.5105 181.966C95.4691 181.986 95.4339 182.018 95.4095 182.059C95.3851 182.1 95.3725 182.148 95.3733 182.196Z" fill="#03211B"/>
<path d="M92.5508 184.334C92.5072 184.323 92.4615 184.326 92.4193 184.342C92.3772 184.359 92.3406 184.389 92.3142 184.428C92.2877 184.467 92.2726 184.514 92.2708 184.562C92.2689 184.611 92.2804 184.659 92.3037 184.7C93.4104 186.593 94.4596 186.728 94.9029 186.681C94.9348 186.678 94.9657 186.667 94.9935 186.65C95.0213 186.633 95.0455 186.609 95.0643 186.581C95.0832 186.553 95.0964 186.521 95.103 186.487C95.1095 186.453 95.1094 186.418 95.1026 186.384C95.0044 185.916 94.5577 184.876 92.5508 184.334Z" fill="#03211B"/>
<path d="M111.561 178.627C109.283 177.613 108.176 178.261 107.773 178.627C107.745 178.654 107.723 178.688 107.707 178.725C107.692 178.763 107.684 178.804 107.684 178.845C107.684 178.886 107.692 178.926 107.707 178.964C107.723 179.001 107.745 179.035 107.773 179.063C108.169 179.429 109.263 180.121 111.561 179.158C111.607 179.134 111.647 179.097 111.674 179.05C111.702 179.003 111.717 178.948 111.717 178.892C111.717 178.837 111.702 178.782 111.674 178.735C111.647 178.688 111.607 178.65 111.561 178.627Z" fill="#03211B"/>
<path d="M109.286 181.003C107.09 179.795 105.942 180.351 105.512 180.692C105.481 180.716 105.455 180.747 105.436 180.783C105.417 180.819 105.405 180.859 105.402 180.9C105.398 180.942 105.403 180.983 105.416 181.022C105.428 181.062 105.449 181.097 105.475 181.127C105.844 181.545 106.883 182.31 109.242 181.541C109.294 181.525 109.34 181.492 109.375 181.447C109.409 181.402 109.43 181.347 109.435 181.288C109.44 181.23 109.428 181.171 109.402 181.12C109.375 181.069 109.335 181.028 109.286 181.003Z" fill="#03211B"/>
<path d="M106.359 183.467C104.589 182.05 103.499 182.368 103.076 182.588C103.047 182.605 103.022 182.628 103.001 182.655C102.981 182.683 102.966 182.715 102.957 182.75C102.949 182.784 102.947 182.82 102.951 182.855C102.956 182.89 102.967 182.924 102.985 182.954C103.249 183.379 104.061 184.221 106.244 183.924C106.29 183.916 106.332 183.894 106.367 183.861C106.401 183.828 106.426 183.784 106.438 183.736C106.45 183.687 106.449 183.636 106.435 183.588C106.421 183.541 106.395 183.498 106.359 183.467Z" fill="#03211B"/>
<path d="M100.737 184.25C100.703 184.26 100.671 184.278 100.643 184.302C100.616 184.327 100.594 184.358 100.579 184.393C100.564 184.428 100.556 184.466 100.556 184.504C100.556 184.543 100.563 184.581 100.578 184.616C100.761 185.092 101.404 186.08 103.597 186.264C103.645 186.268 103.694 186.256 103.736 186.23C103.778 186.205 103.812 186.165 103.833 186.118C103.854 186.071 103.862 186.018 103.855 185.966C103.848 185.915 103.826 185.866 103.793 185.828C102.318 184.049 101.191 184.115 100.737 184.25Z" fill="#03211B"/>
<path d="M99.0316 186.34C98.9975 186.339 98.9635 186.345 98.9319 186.359C98.9003 186.372 98.8718 186.393 98.8483 186.42C98.8249 186.447 98.807 186.479 98.796 186.514C98.785 186.549 98.7811 186.586 98.7845 186.622C98.8252 187.135 99.1568 188.295 101.201 189.185C101.247 189.208 101.299 189.214 101.349 189.203C101.399 189.192 101.444 189.164 101.478 189.123C101.513 189.083 101.534 189.031 101.539 188.976C101.545 188.922 101.534 188.867 101.509 188.819C100.595 186.663 99.4986 186.34 99.0316 186.34Z" fill="#03211B"/>
<path d="M96.8219 188.504C96.7883 188.499 96.7541 188.501 96.7216 188.512C96.6891 188.522 96.659 188.54 96.6333 188.564C96.6076 188.588 96.587 188.617 96.5728 188.65C96.5587 188.684 96.5513 188.72 96.5511 188.757C96.5511 189.273 96.7745 190.463 98.7306 191.554C98.7735 191.578 98.8223 191.588 98.8706 191.582C98.9189 191.576 98.9643 191.555 99.001 191.52C99.0376 191.486 99.0637 191.44 99.0759 191.389C99.088 191.338 99.0857 191.284 99.069 191.235C98.3482 188.987 97.2923 188.574 96.8219 188.504Z" fill="#03211B"/>
<path d="M82.1507 225.49C91.6573 190.631 64.8603 155.775 64.8603 155.775C90.0666 195.632 82.1507 225.49 82.1507 225.49Z" fill="#03211B"/>
<path d="M72.0317 154.604C69.9537 158.111 70.5696 160.128 70.9927 160.904C71.0226 160.96 71.0632 161.008 71.1116 161.045C71.1601 161.082 71.2154 161.108 71.2737 161.12C71.3321 161.132 71.3922 161.13 71.4499 161.115C71.5077 161.1 71.5618 161.072 71.6086 161.033C72.2686 160.483 73.5309 158.854 72.7999 154.765C72.7849 154.675 72.745 154.592 72.6856 154.527C72.6261 154.462 72.5499 154.417 72.4668 154.4C72.3837 154.383 72.2977 154.393 72.22 154.429C72.1424 154.466 72.0767 154.526 72.0317 154.604Z" fill="#03211B"/>
<path d="M74.7696 159.048C72.4446 162.369 72.9116 164.434 73.2771 165.243C73.3034 165.3 73.3406 165.351 73.3864 165.392C73.4322 165.433 73.4855 165.463 73.5427 165.48C73.6 165.497 73.6599 165.5 73.7186 165.49C73.7772 165.48 73.8332 165.457 73.8829 165.422C74.5801 164.928 75.9575 163.412 75.5243 159.275C75.5162 159.184 75.4826 159.097 75.4281 159.027C75.3736 158.957 75.3007 158.906 75.219 158.881C75.1373 158.857 75.0506 158.86 74.9704 158.889C74.8902 158.919 74.8202 158.975 74.7696 159.048Z" fill="#03211B"/>
<path d="M77.4534 164.606C74.9524 167.168 75.0844 169.05 75.2908 169.822C75.3056 169.877 75.3311 169.929 75.3656 169.972C75.4001 170.016 75.4429 170.051 75.4909 170.075C75.539 170.099 75.5913 170.112 75.6443 170.113C75.6974 170.113 75.7499 170.102 75.7985 170.079C76.4753 169.756 77.9035 168.64 78.0897 164.928C78.0936 164.846 78.075 164.765 78.0362 164.695C77.9974 164.625 77.9402 164.569 77.8718 164.535C77.8035 164.5 77.7272 164.489 77.6526 164.501C77.5781 164.514 77.5087 164.55 77.4534 164.606Z" fill="#03211B"/>
<path d="M80.0762 169.526C77.159 171.488 76.9356 173.373 77.0033 174.175C77.0074 174.233 77.0229 174.289 77.0488 174.34C77.0746 174.391 77.1102 174.435 77.1532 174.47C77.1961 174.504 77.2454 174.529 77.2978 174.541C77.3502 174.553 77.4044 174.553 77.4568 174.541C78.1844 174.373 79.7784 173.582 80.6414 169.98C80.6627 169.9 80.661 169.815 80.6365 169.737C80.6121 169.658 80.566 169.59 80.5045 169.541C80.443 169.491 80.3691 169.463 80.2925 169.461C80.216 169.458 80.1405 169.481 80.0762 169.526Z" fill="#03211B"/>
<path d="M82.2996 174.625C79.3214 175.995 78.8646 177.708 78.8206 178.466C78.8147 178.52 78.8203 178.576 78.8368 178.628C78.8534 178.68 78.8806 178.727 78.9163 178.766C78.9521 178.805 78.9955 178.835 79.0434 178.853C79.0913 178.872 79.1423 178.878 79.1928 178.872C79.8934 178.825 81.4806 178.341 82.7633 175.131C82.8032 175.061 82.8202 174.978 82.8115 174.897C82.8029 174.815 82.769 174.739 82.7155 174.68C82.6619 174.622 82.5918 174.585 82.5164 174.575C82.4409 174.565 82.3646 174.583 82.2996 174.625Z" fill="#03211B"/>
<path d="M85.7109 180.018C82.506 179.546 81.3113 180.75 80.9018 181.391C80.8742 181.436 80.8556 181.486 80.8471 181.54C80.8386 181.593 80.8405 181.647 80.8526 181.7C80.8647 181.752 80.8867 181.801 80.9174 181.844C80.948 181.886 80.9865 181.922 81.0304 181.947C81.6532 182.295 83.2506 182.76 85.87 180.71C85.938 180.672 85.9922 180.611 86.0238 180.536C86.0554 180.46 86.0626 180.376 86.0442 180.296C86.0258 180.216 85.9828 180.144 85.9223 180.094C85.8618 180.044 85.7873 180.017 85.7109 180.018Z" fill="#03211B"/>
<path d="M61.1714 159.77C61.0871 159.771 61.0051 159.799 60.9359 159.851C60.8667 159.903 60.8134 159.976 60.7828 160.061C60.7523 160.146 60.7459 160.239 60.7645 160.328C60.7831 160.417 60.8258 160.498 60.8871 160.56C63.7062 163.408 65.6522 163.123 66.4374 162.804C66.493 162.783 66.5438 162.749 66.5865 162.705C66.6291 162.661 66.6626 162.608 66.6847 162.548C66.7067 162.489 66.7169 162.426 66.7146 162.362C66.7122 162.298 66.6973 162.235 66.6709 162.178C66.2817 161.369 65.0261 159.729 61.1714 159.77Z" fill="#03211B"/>
<path d="M63.202 164.65C63.118 164.658 63.0382 164.693 62.9728 164.751C62.9073 164.808 62.8594 164.886 62.835 164.973C62.8106 165.06 62.811 165.154 62.836 165.241C62.861 165.328 62.9095 165.405 62.9753 165.462C65.9873 168.058 67.9096 167.604 68.6677 167.227C68.7219 167.2 68.7701 167.161 68.8093 167.113C68.8485 167.064 68.8778 167.007 68.895 166.946C68.9123 166.884 68.9173 166.819 68.9096 166.755C68.9019 166.691 68.8817 166.63 68.8504 166.575C68.4105 165.806 67.0398 164.28 63.202 164.65Z" fill="#03211B"/>
<path d="M66.1294 170.068C66.0565 170.089 65.9909 170.133 65.9412 170.194C65.8915 170.256 65.8599 170.332 65.8505 170.413C65.841 170.494 65.8542 170.576 65.8882 170.649C65.9222 170.722 65.9756 170.782 66.0414 170.822C69.0535 172.623 70.6813 171.92 71.3007 171.462C71.3444 171.43 71.3813 171.387 71.4088 171.338C71.4363 171.289 71.4538 171.234 71.4602 171.177C71.4666 171.12 71.4617 171.062 71.4459 171.007C71.4301 170.952 71.4036 170.901 71.3684 170.858C70.8776 170.254 69.4596 169.134 66.1294 170.068Z" fill="#03211B"/>
<path d="M73.8693 174.746C73.2771 174.256 71.6831 173.458 68.5898 175.09C68.5222 175.126 68.466 175.184 68.4285 175.254C68.391 175.325 68.3739 175.406 68.3794 175.488C68.3848 175.569 68.4126 175.647 68.4591 175.711C68.5057 175.775 68.5688 175.823 68.6406 175.848C71.9234 176.972 73.3786 175.929 73.9133 175.35C73.9499 175.309 73.9779 175.26 73.9956 175.206C74.0134 175.152 74.0204 175.095 74.0162 175.038C74.0121 174.981 73.9969 174.925 73.9715 174.875C73.9462 174.825 73.9114 174.781 73.8693 174.746Z" fill="#03211B"/>
<path d="M75.2264 178.847C74.5225 178.576 72.7795 178.334 70.2887 180.904C70.2335 180.96 70.1952 181.033 70.1788 181.113C70.1624 181.192 70.1687 181.276 70.1969 181.352C70.225 181.428 70.2737 181.493 70.3366 181.538C70.3995 181.584 70.4736 181.608 70.5493 181.607C73.9911 181.607 75.0978 180.142 75.4362 179.41C75.4593 179.359 75.4722 179.303 75.4741 179.245C75.4759 179.188 75.4666 179.131 75.4469 179.078C75.4271 179.025 75.3973 178.977 75.3593 178.937C75.3213 178.897 75.2761 178.866 75.2264 178.847Z" fill="#03211B"/>
<path d="M77.2706 183.382C76.5464 183.185 74.7899 183.126 72.5326 185.945C72.4841 186.007 72.4536 186.083 72.4451 186.164C72.4367 186.244 72.4505 186.326 72.485 186.398C72.5194 186.47 72.5729 186.53 72.6386 186.569C72.7043 186.608 72.7793 186.626 72.8541 186.619C76.279 186.253 77.2537 184.682 77.5244 183.932C77.5445 183.878 77.5537 183.82 77.5515 183.762C77.5493 183.704 77.5358 183.647 77.5118 183.595C77.4878 183.543 77.4539 183.497 77.4123 183.461C77.3707 183.424 77.3224 183.397 77.2706 183.382Z" fill="#03211B"/>
<path d="M92.632 210.711H75.504C74.6293 210.711 73.9202 211.478 73.9202 212.424V241.25C73.9202 242.197 74.6293 242.964 75.504 242.964H92.632C93.5068 242.964 94.2159 242.197 94.2159 241.25V212.424C94.2159 211.478 93.5068 210.711 92.632 210.711Z" fill="#0E4959"/>
<path opacity="0.2" d="M92.632 210.711H90.7707C90.6116 217.301 88.8078 235.689 73.9202 240.192V241.254C73.9197 241.479 73.9604 241.702 74.0398 241.91C74.1193 242.118 74.2359 242.307 74.3831 242.467C74.5302 242.626 74.705 242.752 74.8974 242.838C75.0897 242.924 75.2959 242.968 75.504 242.967H92.632C92.8399 242.967 93.0457 242.923 93.2376 242.837C93.4296 242.751 93.604 242.624 93.7508 242.465C93.8976 242.306 94.014 242.117 94.0932 241.909C94.1724 241.702 94.213 241.479 94.2125 241.254V212.424C94.2125 211.971 94.0461 211.535 93.7498 211.214C93.4535 210.893 93.0515 210.712 92.632 210.711Z" fill="black"/>
<path opacity="0.2" d="M204.155 26.732L187.325 72.0541H163.98L180.479 26.732H204.155Z" fill="white"/>
<path d="M196.202 16.3899H183.518V28.3428H196.202V16.3899Z" fill="#075445"/>
<path d="M196.202 28.3428H183.518V29.9023H196.202V28.3428Z" fill="#075445"/>
<path opacity="0.2" d="M196.202 28.3428H183.518V29.9023H196.202V28.3428Z" fill="black"/>
<path d="M189.86 8.28098C188.713 8.28098 187.613 8.7739 186.801 9.65132C185.99 10.5287 185.535 11.7188 185.535 12.9596V16.3899H186.591V12.9084C186.591 11.984 186.93 11.0976 187.534 10.444C188.138 9.79037 188.958 9.42318 189.812 9.42318C190.235 9.42318 190.654 9.51335 191.045 9.68854C191.436 9.86374 191.791 10.1205 192.089 10.4442C192.388 10.7679 192.625 11.1521 192.787 11.5749C192.948 11.9977 193.031 12.4509 193.031 12.9084V16.3899H194.185V12.9596C194.185 11.7188 193.729 10.5287 192.918 9.65132C192.107 8.7739 191.007 8.28098 189.86 8.28098Z" fill="#F36316"/>
<path d="M189.812 9.42319C188.958 9.42319 188.138 9.79038 187.534 10.444C186.93 11.0976 186.59 11.984 186.59 12.9084V16.3899H187.169V13.2196C187.156 12.8357 187.215 12.453 187.342 12.0944C187.469 11.7357 187.662 11.4084 187.908 11.132C188.155 10.8556 188.451 10.6358 188.777 10.4856C189.104 10.3355 189.456 10.2581 189.811 10.2581C190.166 10.2581 190.517 10.3355 190.844 10.4856C191.171 10.6358 191.466 10.8556 191.713 11.132C191.959 11.4084 192.152 11.7357 192.279 12.0944C192.406 12.453 192.465 12.8357 192.452 13.2196V16.3899H193.031V12.9084C193.031 12.4509 192.948 11.9977 192.787 11.5749C192.625 11.1521 192.388 10.7679 192.089 10.4442C191.79 10.1205 191.435 9.86374 191.045 9.68855C190.654 9.51336 190.235 9.42319 189.812 9.42319Z" fill="#F36316"/>
<path d="M189.812 9.42319C188.958 9.42319 188.138 9.79038 187.534 10.444C186.93 11.0976 186.59 11.984 186.59 12.9084V16.3899H187.169V13.2196C187.156 12.8357 187.215 12.453 187.342 12.0944C187.469 11.7357 187.662 11.4084 187.908 11.132C188.155 10.8556 188.451 10.6358 188.777 10.4856C189.104 10.3355 189.456 10.2581 189.811 10.2581C190.166 10.2581 190.517 10.3355 190.844 10.4856C191.171 10.6358 191.466 10.8556 191.713 11.132C191.959 11.4084 192.152 11.7357 192.279 12.0944C192.406 12.453 192.465 12.8357 192.452 13.2196V16.3899H193.031V12.9084C193.031 12.4509 192.948 11.9977 192.787 11.5749C192.625 11.1521 192.388 10.7679 192.089 10.4442C191.79 10.1205 191.435 9.86374 191.045 9.68855C190.654 9.51336 190.235 9.42319 189.812 9.42319Z" fill="#F36316"/>
<path d="M190.821 21.0649C190.821 20.8727 190.771 20.6843 190.678 20.5205C190.585 20.3568 190.452 20.2242 190.294 20.1373C190.135 20.0505 189.957 20.013 189.78 20.0288C189.603 20.0446 189.434 20.1132 189.291 20.227C189.147 20.3407 189.036 20.4952 188.969 20.6732C188.902 20.8513 188.882 21.0459 188.911 21.2355C188.941 21.4251 189.018 21.6022 189.134 21.7472C189.251 21.8922 189.402 21.9995 189.572 22.057V24.6196H190.147V22.057C190.342 21.9907 190.513 21.8588 190.634 21.6803C190.755 21.5019 190.821 21.2863 190.821 21.0649Z" fill="#F36316"/>
<path opacity="0.2" d="M194.733 18.052H194.693C194.412 18.052 194.185 18.2978 194.185 18.6011V25.8167C194.185 26.12 194.412 26.3659 194.693 26.3659H194.733C195.014 26.3659 195.241 26.12 195.241 25.8167V18.6011C195.241 18.2978 195.014 18.052 194.733 18.052Z" fill="white"/>
</svg>
