<svg width="324" height="300" viewBox="0 0 324 300" fill="none" xmlns="http://www.w3.org/2000/svg">
<path d="M150.881 235.413C221.326 235.413 278.433 191.538 278.433 137.416C278.433 83.2939 221.326 39.4192 150.881 39.4192C80.4367 39.4192 23.33 83.2939 23.33 137.416C23.33 191.538 80.4367 235.413 150.881 235.413Z" fill="#AF10FE"/>
<path opacity="0.7" d="M150.881 235.413C221.326 235.413 278.433 191.538 278.433 137.416C278.433 83.2939 221.326 39.4192 150.881 39.4192C80.4367 39.4192 23.33 83.2939 23.33 137.416C23.33 191.538 80.4367 235.413 150.881 235.413Z" fill="white"/>
<path d="M66.9961 63.5944H234.729" stroke="white" stroke-miterlimit="10"/>
<path d="M37.4612 92.0968H263.998" stroke="white" stroke-miterlimit="10"/>
<path d="M25.2012 120.599H276.801" stroke="white" stroke-miterlimit="10"/>
<path d="M23.8838 149.097H277.501" stroke="white" stroke-miterlimit="10"/>
<path d="M33.977 177.6H267.599" stroke="white" stroke-miterlimit="10"/>
<path d="M59.2643 206.102H241.555" stroke="white" stroke-miterlimit="10"/>
<path d="M109.506 63.5944V44.3395" stroke="white" stroke-miterlimit="10"/>
<path d="M159.665 63.5944V39.4192" stroke="white" stroke-miterlimit="10"/>
<path d="M211.167 63.5944V51.509" stroke="white" stroke-miterlimit="10"/>
<path d="M86.6136 63.5944V92.0968" stroke="white" stroke-miterlimit="10"/>
<path d="M109.506 92.0968V120.599" stroke="white" stroke-miterlimit="10"/>
<path d="M79.881 120.599V149.097" stroke="white" stroke-miterlimit="10"/>
<path d="M133.405 120.599V149.097" stroke="white" stroke-miterlimit="10"/>
<path d="M127.346 177.6V206.102" stroke="white" stroke-miterlimit="10"/>
<path d="M177.505 177.6V206.102" stroke="white" stroke-miterlimit="10"/>
<path d="M145.189 206.102V235.408" stroke="white" stroke-miterlimit="10"/>
<path d="M190.51 206.102V230.058" stroke="white" stroke-miterlimit="10"/>
<path d="M100.146 206.102V227.018" stroke="white" stroke-miterlimit="10"/>
<path d="M222.612 177.6V206.102" stroke="white" stroke-miterlimit="10"/>
<path d="M79.881 179.08V207.582" stroke="white" stroke-miterlimit="10"/>
<path d="M182.553 120.599V149.097" stroke="white" stroke-miterlimit="10"/>
<path d="M228.333 120.599V149.097" stroke="white" stroke-miterlimit="10"/>
<path d="M201.74 149.097V177.6" stroke="white" stroke-miterlimit="10"/>
<path d="M155.623 149.097V177.6" stroke="white" stroke-miterlimit="10"/>
<path d="M103.447 149.097V177.6" stroke="white" stroke-miterlimit="10"/>
<path d="M59.2643 149.097V177.6" stroke="white" stroke-miterlimit="10"/>
<path d="M248.531 149.097V177.6" stroke="white" stroke-miterlimit="10"/>
<path d="M159.665 92.0968V120.599" stroke="white" stroke-miterlimit="10"/>
<path d="M209.82 92.0968V120.599" stroke="white" stroke-miterlimit="10"/>
<path d="M254.59 92.0968V120.599" stroke="white" stroke-miterlimit="10"/>
<path d="M54.6349 92.0968V120.599" stroke="white" stroke-miterlimit="10"/>
<path d="M135.089 63.5944V92.0968" stroke="white" stroke-miterlimit="10"/>
<path d="M186.595 63.5944V92.0968" stroke="white" stroke-miterlimit="10"/>
<path d="M228.333 63.5944V92.0968" stroke="white" stroke-miterlimit="10"/>
<path d="M268.916 270.21H29.7182L43.4976 250.152L253.344 251.382L268.916 270.21Z" fill="#D6DFE4"/>
<path d="M268.916 270.21L267.456 273.584L31.144 273.461L29.7182 270.21H268.916Z" fill="#A5B9C5"/>
<path d="M196.101 251.461C196.101 251.461 196.711 239.362 183.751 239.96L117.136 238.519C117.136 238.519 107.032 235.984 104.891 250.134C104.891 250.134 102.231 248.886 104.891 236.814L116.238 196.02C116.238 196.02 118.544 185.753 133.453 182.757C135.426 182.168 137.434 181.757 139.46 181.527L169.492 183.763L180.719 188.894C180.719 188.894 186.393 191.236 186.629 197.307L196.205 234.314C196.205 234.314 199.308 246.453 196.101 251.461Z" fill="#FF3262"/>
<path d="M174.911 186.267L170.892 184.426L169.474 183.781C169.474 183.781 168.901 179.418 161.847 180.758L146.503 179.642C146.503 179.642 141.926 178.184 139.448 181.545C139.448 181.545 138.307 181.716 136.975 181.953C135.784 182.146 134.605 182.42 133.442 182.775C133.442 182.775 128.39 177.503 131.44 175.166C131.44 175.166 138.075 171.585 137.854 167.667C137.854 167.667 137.993 164.152 137.809 163.674C138.21 163.761 140.16 163.893 142.884 164.034C147.899 164.302 155.537 164.622 161.001 164.833C164.863 164.991 167.636 165.092 167.636 165.092C167.636 165.092 166.888 170.575 170.907 172.591C170.907 172.591 175.005 174.494 174.911 179.976V186.267Z" fill="#272727"/>
<path d="M170.952 184.435L169.474 183.763C169.474 183.763 168.901 179.401 161.847 180.741L146.503 179.625C146.503 179.625 141.926 178.166 139.448 181.527C139.448 181.527 138.307 181.698 136.975 181.936C136.56 180.805 135.929 179.802 135.13 179.005C134.655 178.591 134.257 178.068 133.958 177.468C133.356 176.238 133.012 174.393 135.485 173.356C135.485 173.356 140.388 171.498 139.564 167.206L142.884 164.025L144.119 162.843L161.001 164.824L163.65 165.136L165.189 165.642C165.189 165.642 164.137 169.784 166.805 171.353C166.805 171.353 171.479 174.155 170.922 179.862L170.952 184.435Z" fill="#231F20"/>
<path d="M147.543 170.452V176.602C147.541 177.618 147.215 178.596 146.63 179.344C146.031 180.126 145.35 181.224 145.35 182.221C145.35 182.221 145.35 192.18 148.879 197.329H158.127C158.127 197.329 163.074 188.2 162 181.514C161.922 181.039 161.733 180.599 161.454 180.244L160.443 178.966C159.816 178.171 159.477 177.119 159.5 176.036L159.653 169.446L147.543 170.452Z" fill="#FFB8CA"/>
<path d="M141.062 197.307C141.062 197.307 133.435 189.698 139.441 181.527C139.441 181.527 141.211 178.342 146.421 179.607C146.421 179.607 145.436 180.815 145.35 182.199C145.35 182.199 144.976 190.366 148.879 197.307H141.062Z" fill="#FF3262"/>
<path opacity="0.4" d="M141.062 197.307C141.062 197.307 133.435 189.698 139.441 181.527C139.441 181.527 141.211 178.342 146.421 179.607C146.421 179.607 145.436 180.815 145.35 182.199C145.35 182.199 144.976 190.366 148.879 197.307H141.062Z" fill="white"/>
<path d="M158.127 197.307H166.91C166.91 197.307 171.203 189.241 169.485 183.763C169.485 183.763 168.864 179.317 161.768 180.736C161.757 180.736 163.942 185.665 158.127 197.307Z" fill="#FF3262"/>
<path opacity="0.4" d="M158.127 197.307H166.91C166.91 197.307 171.203 189.241 169.485 183.763C169.485 183.763 168.864 179.317 161.768 180.736C161.757 180.736 163.942 185.665 158.127 197.307Z" fill="white"/>
<path d="M113.735 197.307L118.701 257.835H181.996L188.024 197.307H113.735Z" fill="#AF10FE"/>
<path opacity="0.4" d="M188.024 197.307L182.433 253.482H118.341L117.458 242.938C117.458 242.938 152.562 244.195 168.699 197.329L188.024 197.307Z" fill="white"/>
<path d="M231.462 256.996C231.425 257.088 231.384 257.176 231.342 257.264C230.542 258.143 225.804 258.832 220.074 258.832C213.993 258.832 209.023 258.064 208.705 257.075C208.699 257.045 208.699 257.013 208.705 256.983C208.705 255.968 213.802 255.142 220.089 255.142C226.376 255.142 231.462 255.994 231.462 256.996Z" fill="#D1D3D4"/>
<path d="M231.342 257.277C229.471 260.88 220.168 260.888 220.074 260.888C210.003 261.011 208.847 257.712 208.705 257.106C209.023 258.077 213.993 258.863 220.074 258.863C225.804 258.846 230.53 258.165 231.342 257.277Z" fill="#E6E7E8"/>
<path d="M58.4185 256.337H89.1659L97.4627 245.258H70.1434L58.4185 256.337Z" fill="#008FA3"/>
<path d="M89.1659 256.337H58.4185V263.757H89.1659V256.337Z" fill="#008FA3"/>
<path opacity="0.4" d="M89.1659 256.337H58.4185V263.757H89.1659V256.337Z" fill="white"/>
<path d="M97.4626 253.653L89.1658 263.761V256.337L97.4626 245.258V253.653Z" fill="#008FA3"/>
<path opacity="0.2" d="M97.4626 253.653L89.1658 263.761V256.337L97.4626 245.258V253.653Z" fill="black"/>
<path d="M65.4916 147.169H42.2365C37.2023 147.169 32.3743 149.516 28.8146 153.695C25.2549 157.873 23.2551 163.541 23.2551 169.45C23.2551 172.376 23.7461 175.274 24.7001 177.977C25.654 180.68 27.0522 183.136 28.8149 185.204C30.5775 187.273 32.67 188.914 34.9729 190.033C37.2758 191.153 39.744 191.728 42.2365 191.728H61.7492C63.6841 194.957 67.9354 200.075 76.2135 202.271C76.2135 202.271 73.156 195.901 72.183 190.291C75.7978 188.696 78.9123 185.845 81.1108 182.118C83.3094 178.391 84.4875 173.966 84.4879 169.433C84.4865 166.507 83.9939 163.609 83.0383 160.907C82.0828 158.204 80.683 155.749 78.9189 153.681C77.1549 151.614 75.0611 149.974 72.7572 148.857C70.4533 147.739 67.9844 147.166 65.4916 147.169Z" fill="#FDDFD2"/>
<path d="M70.4764 158.872H37.1431C36.9783 158.872 36.8203 158.795 36.7038 158.658C36.5873 158.521 36.5218 158.336 36.5218 158.143C36.5218 157.949 36.5873 157.764 36.7038 157.627C36.8203 157.49 36.9783 157.413 37.1431 157.413H70.4764C70.6412 157.413 70.7992 157.49 70.9157 157.627C71.0322 157.764 71.0977 157.949 71.0977 158.143C71.0977 158.336 71.0322 158.521 70.9157 158.658C70.7992 158.795 70.6412 158.872 70.4764 158.872Z" fill="white"/>
<path d="M70.5326 166.362H37.203C37.1176 166.37 37.0318 166.357 36.9509 166.324C36.87 166.291 36.7958 166.239 36.7329 166.17C36.67 166.102 36.6199 166.019 36.5856 165.927C36.5513 165.835 36.5336 165.736 36.5336 165.635C36.5336 165.534 36.5513 165.435 36.5856 165.343C36.6199 165.251 36.67 165.168 36.7329 165.1C36.7958 165.031 36.87 164.979 36.9509 164.946C37.0318 164.913 37.1176 164.9 37.203 164.908H70.5326C70.618 164.9 70.7038 164.913 70.7847 164.946C70.8656 164.979 70.9398 165.031 71.0027 165.1C71.0656 165.168 71.1157 165.251 71.15 165.343C71.1843 165.435 71.202 165.534 71.202 165.635C71.202 165.736 71.1843 165.835 71.15 165.927C71.1157 166.019 71.0656 166.102 71.0027 166.17C70.9398 166.239 70.8656 166.291 70.7847 166.324C70.7038 166.357 70.618 166.37 70.5326 166.362Z" fill="white"/>
<path d="M70.5064 173.857H37.1731C37.0083 173.857 36.8503 173.78 36.7338 173.643C36.6173 173.506 36.5518 173.321 36.5518 173.127C36.5518 172.934 36.6173 172.749 36.7338 172.612C36.8503 172.475 37.0083 172.398 37.1731 172.398H70.5064C70.6712 172.398 70.8292 172.475 70.9457 172.612C71.0622 172.749 71.1277 172.934 71.1277 173.127C71.1277 173.321 71.0622 173.506 70.9457 173.643C70.8292 173.78 70.6712 173.857 70.5064 173.857Z" fill="white"/>
<path d="M70.5625 181.347H37.2329C37.1475 181.355 37.0617 181.342 36.9808 181.309C36.8999 181.276 36.8257 181.223 36.7628 181.155C36.7 181.087 36.6498 181.004 36.6155 180.912C36.5812 180.82 36.5635 180.72 36.5635 180.62C36.5635 180.519 36.5812 180.42 36.6155 180.328C36.6498 180.236 36.7 180.153 36.7628 180.085C36.8257 180.016 36.8999 179.964 36.9808 179.931C37.0617 179.898 37.1475 179.885 37.2329 179.893H70.5625C70.6479 179.885 70.7338 179.898 70.8147 179.931C70.8955 179.964 70.9698 180.016 71.0326 180.085C71.0955 180.153 71.1456 180.236 71.1799 180.328C71.2142 180.42 71.232 180.519 71.232 180.62C71.232 180.72 71.2142 180.82 71.1799 180.912C71.1456 181.004 71.0955 181.087 71.0326 181.155C70.9698 181.223 70.8955 181.276 70.8147 181.309C70.7338 181.342 70.6479 181.355 70.5625 181.347Z" fill="white"/>
<path d="M254.209 107.055H279.84C285.385 107.056 290.703 109.643 294.624 114.245C298.544 118.848 300.748 125.09 300.749 131.6C300.749 138.109 298.546 144.352 294.625 148.955C290.704 153.558 285.385 156.144 279.84 156.144H258.351C256.222 159.698 251.536 165.347 242.416 167.772C242.416 167.772 245.784 160.743 246.858 154.593C242.876 152.835 239.445 149.694 237.024 145.588C234.602 141.482 233.304 136.607 233.304 131.613C233.302 128.389 233.842 125.196 234.892 122.217C235.941 119.238 237.481 116.531 239.422 114.25C241.364 111.97 243.669 110.161 246.206 108.926C248.743 107.692 251.462 107.056 254.209 107.055Z" fill="#FDDFD2"/>
<path d="M285.45 119.896H248.73C248.574 119.882 248.428 119.799 248.322 119.665C248.216 119.53 248.157 119.353 248.157 119.169C248.157 118.986 248.216 118.809 248.322 118.674C248.428 118.539 248.574 118.456 248.73 118.442H285.45C285.606 118.456 285.751 118.539 285.858 118.674C285.964 118.809 286.023 118.986 286.023 119.169C286.023 119.353 285.964 119.53 285.858 119.665C285.751 119.799 285.606 119.882 285.45 119.896Z" fill="white"/>
<path d="M285.382 128.151H248.666C248.584 128.151 248.503 128.132 248.428 128.095C248.353 128.059 248.284 128.005 248.227 127.937C248.169 127.87 248.123 127.789 248.092 127.701C248.061 127.612 248.045 127.517 248.045 127.422C248.045 127.326 248.061 127.231 248.092 127.143C248.123 127.054 248.169 126.974 248.227 126.906C248.284 126.838 248.353 126.785 248.428 126.748C248.503 126.711 248.584 126.692 248.666 126.692H285.382C285.547 126.692 285.705 126.769 285.822 126.906C285.938 127.043 286.003 127.228 286.003 127.422C286.003 127.615 285.938 127.801 285.822 127.937C285.705 128.074 285.547 128.151 285.382 128.151Z" fill="white"/>
<path d="M285.416 136.406H248.7C248.535 136.406 248.377 136.329 248.26 136.192C248.144 136.055 248.078 135.87 248.078 135.676C248.078 135.483 248.144 135.297 248.26 135.161C248.377 135.024 248.535 134.947 248.7 134.947H285.416C285.581 134.947 285.739 135.024 285.855 135.161C285.972 135.297 286.037 135.483 286.037 135.676C286.037 135.87 285.972 136.055 285.855 136.192C285.739 136.329 285.581 136.406 285.416 136.406Z" fill="white"/>
<path d="M285.349 144.656H248.632C248.476 144.642 248.331 144.559 248.224 144.424C248.118 144.289 248.059 144.112 248.059 143.929C248.059 143.745 248.118 143.568 248.224 143.433C248.331 143.299 248.476 143.216 248.632 143.202H285.349C285.434 143.194 285.52 143.207 285.601 143.24C285.682 143.273 285.756 143.325 285.819 143.393C285.882 143.462 285.932 143.545 285.966 143.637C286 143.729 286.018 143.828 286.018 143.929C286.018 144.029 286 144.129 285.966 144.221C285.932 144.313 285.882 144.396 285.819 144.464C285.756 144.532 285.682 144.585 285.601 144.618C285.52 144.651 285.434 144.664 285.349 144.656Z" fill="white"/>
<path d="M227.739 49.2642V110.706C227.739 116.765 225.688 122.575 222.039 126.859C218.389 131.143 213.439 133.55 208.278 133.55H115.883C104.633 178.663 114.876 190.072 115.082 190.3C87.9459 171.77 92.3469 133.55 92.3469 133.55H74.2937C69.1325 133.55 64.1826 131.143 60.5331 126.859C56.8836 122.575 54.8333 116.765 54.8333 110.706V49.2642C54.8333 43.2055 56.8836 37.3951 60.5331 33.111C64.1826 28.8269 69.1325 26.4201 74.2937 26.4201H208.271C210.827 26.4189 213.358 27.009 215.72 28.1565C218.082 29.304 220.228 30.9865 222.036 33.1078C223.844 35.2292 225.278 37.7479 226.257 40.5201C227.235 43.2922 227.739 46.2635 227.739 49.2642Z" fill="#FDDFD2"/>
<path d="M209.057 36.4495H154.568C150.831 36.4495 147.801 40.0056 147.801 44.3922V114.207C147.801 118.594 150.831 122.15 154.568 122.15H209.057C212.794 122.15 215.823 118.594 215.823 114.207V44.3922C215.823 40.0056 212.794 36.4495 209.057 36.4495Z" fill="#FCD6CA"/>
<path d="M181.18 43.9441H154.093C153.743 43.9441 153.46 44.2765 153.46 44.6866V59.8252C153.46 60.2352 153.743 60.5676 154.093 60.5676H181.18C181.529 60.5676 181.812 60.2352 181.812 59.8252V44.6866C181.812 44.2765 181.529 43.9441 181.18 43.9441Z" fill="white"/>
<path d="M178.216 47.731H157.086V48.2186H178.216V47.731Z" fill="#FDDFD2"/>
<path d="M178.216 52.3261H157.086V52.8138H178.216V52.3261Z" fill="#FDDFD2"/>
<path d="M178.216 56.6446H157.086V57.1322H178.216V56.6446Z" fill="#FDDFD2"/>
<path d="M208.009 62.6763H180.921C180.572 62.6763 180.289 63.0087 180.289 63.4187V78.5573C180.289 78.9673 180.572 79.2997 180.921 79.2997H208.009C208.358 79.2997 208.641 78.9673 208.641 78.5573V63.4187C208.641 63.0087 208.358 62.6763 208.009 62.6763Z" fill="white"/>
<path d="M205.045 66.4631H183.915V66.9507H205.045V66.4631Z" fill="#FCD6CA"/>
<path d="M205.045 71.0583H183.915V71.5459H205.045V71.0583Z" fill="#FCD6CA"/>
<path d="M205.045 75.3767H183.915V75.8643H205.045V75.3767Z" fill="#FCD6CA"/>
<path d="M181.771 80.7099H154.684C154.334 80.7099 154.051 81.0423 154.051 81.4524V96.591C154.051 97.001 154.334 97.3334 154.684 97.3334H181.771C182.12 97.3334 182.403 97.001 182.403 96.591V81.4524C182.403 81.0423 182.12 80.7099 181.771 80.7099Z" fill="white"/>
<path d="M178.807 84.5012H157.678V84.9888H178.807V84.5012Z" fill="#FDDFD2"/>
<path d="M178.807 89.0963H157.678V89.584H178.807V89.0963Z" fill="#FDDFD2"/>
<path d="M178.807 93.4147H157.678V93.9024H178.807V93.4147Z" fill="#FDDFD2"/>
<path d="M208.009 100.04H180.921C180.572 100.04 180.289 100.372 180.289 100.782V115.921C180.289 116.331 180.572 116.663 180.921 116.663H208.009C208.358 116.663 208.641 116.331 208.641 115.921V100.782C208.641 100.372 208.358 100.04 208.009 100.04Z" fill="white"/>
<path d="M205.045 103.826H183.915V104.314H205.045V103.826Z" fill="#FCD6CA"/>
<path d="M205.045 108.422H183.915V108.909H205.045V108.422Z" fill="#FCD6CA"/>
<path d="M205.045 112.74H183.915V113.228H205.045V112.74Z" fill="#FCD6CA"/>
<path d="M147.543 176.602V170.452L159.77 169.855L159.459 176.444C157.367 177.228 155.181 177.61 152.985 177.573C151.144 177.51 149.317 177.184 147.543 176.602Z" fill="#F9AAC0"/>
<path d="M153.003 173.356C161.085 173.356 167.636 161.622 167.636 147.147C167.636 132.672 161.085 120.937 153.003 120.937C144.922 120.937 138.37 132.672 138.37 147.147C138.37 161.622 144.922 173.356 153.003 173.356Z" fill="#FFB8CA"/>
<path d="M168.699 146.29C168.699 146.29 168.284 146.325 167.625 146.29C165.35 146.202 160.189 145.359 159.568 139.617C159.568 139.617 155.844 143.676 151.413 142.74C152.217 142.062 152.783 141.062 153.003 139.929C153.003 139.929 143.049 147.687 137.727 146.079C137.727 146.079 135.358 123.995 153.003 125.871C153.003 125.884 167.284 124.008 168.699 146.29Z" fill="#272727"/>
<path d="M167.632 147.169C161.341 150.534 159.025 142.134 159.025 142.134C154.59 145.574 149.295 146.321 149.295 146.321C149.696 145.589 149.966 144.768 150.088 143.909C144.328 149.11 137.854 146.106 137.854 146.106C143.176 147.7 153.011 139.955 153.011 139.955C152.79 141.089 152.225 142.089 151.42 142.767C155.851 143.703 159.575 139.643 159.575 139.643C160.196 145.385 165.357 146.233 167.632 146.316V147.169Z" fill="#F9AAC0"/>
<path d="M172.984 148.131L174.507 148.57C174.755 148.64 174.987 148.768 175.191 148.947C175.395 149.126 175.565 149.352 175.692 149.611C175.819 149.87 175.899 150.157 175.929 150.454C175.958 150.751 175.935 151.052 175.862 151.338L172.007 166.019C171.868 166.526 171.568 166.95 171.169 167.203C170.77 167.456 170.304 167.518 169.867 167.377L165.787 166.112L169.335 149.15L168.699 147.169L169.84 143.799L164.942 130.036C164.942 130.036 159.354 125.089 154.059 125.089C154.059 125.089 140.212 122.769 137.847 136.023L136.514 145.227L137.72 147.169V150.209C137.72 150.209 138.565 161.253 141.308 166.2C141.308 166.2 141.002 167.039 138.363 167.482C138.363 167.482 135.134 169.077 134.449 165.053L131.114 151.702C131.114 151.702 130.074 148.412 133.513 148.003C133.68 147.988 133.835 147.895 133.944 147.746C134.053 147.598 134.108 147.404 134.097 147.208C133.824 142.881 133.244 121.337 148.76 120.41C148.76 120.41 173.508 116.224 172.336 147.134C172.332 147.361 172.393 147.584 172.511 147.766C172.629 147.947 172.795 148.076 172.984 148.131Z" fill="#FF3262"/>
<path d="M141.088 130.475C137.375 135.351 137.72 146.097 137.72 146.097C138.55 145.851 138.363 146.536 138.363 146.536C138.21 158.397 142.622 165.624 142.622 165.624C139.666 167.381 138.966 163.823 138.966 163.823L135.598 150.362C135.429 149.756 135.449 149.099 135.655 148.508C135.861 147.918 136.238 147.432 136.72 147.138H136.297C136.21 147.138 136.126 147.1 136.061 147.031C135.997 146.962 135.957 146.867 135.949 146.764C135.732 143.689 134.898 122.488 153.205 124.417C153.205 124.417 167.984 123.688 170.376 141.273V145.881C170.376 146.111 170.299 146.331 170.163 146.495C170.027 146.659 169.841 146.754 169.646 146.76H169.444L169.859 147.283C170.089 147.573 170.255 147.925 170.34 148.309C170.426 148.692 170.429 149.094 170.349 149.479C169.601 153.205 167.311 164.126 165.795 166.138C165.393 166.257 164.969 166.227 164.583 166.05C164.197 165.874 163.867 165.561 163.639 165.154C163.639 165.154 167.733 158.652 167.625 146.29H168.699C168.699 146.29 168.212 125.269 153.003 125.893C153.003 125.884 145.65 124.483 141.088 130.475Z" fill="#FF3262"/>
<path opacity="0.4" d="M141.088 130.475C137.375 135.351 137.72 146.097 137.72 146.097C138.55 145.851 138.363 146.536 138.363 146.536C138.21 158.397 142.622 165.624 142.622 165.624C139.666 167.381 138.966 163.823 138.966 163.823L135.598 150.362C135.429 149.756 135.449 149.099 135.655 148.508C135.861 147.918 136.238 147.432 136.72 147.138H136.297C136.21 147.138 136.126 147.1 136.061 147.031C135.997 146.962 135.957 146.867 135.949 146.764C135.732 143.689 134.898 122.488 153.205 124.417C153.205 124.417 167.984 123.688 170.376 141.273V145.881C170.376 146.111 170.299 146.331 170.163 146.495C170.027 146.659 169.841 146.754 169.646 146.76H169.444L169.859 147.283C170.089 147.573 170.255 147.925 170.34 148.309C170.426 148.692 170.429 149.094 170.349 149.479C169.601 153.205 167.311 164.126 165.795 166.138C165.393 166.257 164.969 166.227 164.583 166.05C164.197 165.874 163.867 165.561 163.639 165.154C163.639 165.154 167.733 158.652 167.625 146.29H168.699C168.699 146.29 168.212 125.269 153.003 125.893C153.003 125.884 145.65 124.483 141.088 130.475Z" fill="white"/>
<path d="M183.777 239.96C183.395 243.281 183.036 246.66 182.699 250.099C182.45 252.708 182.215 255.287 181.996 257.835C184.044 257.829 186.085 257.534 188.073 256.956C191.15 256.161 194.536 254.646 196.003 251.751C196.133 251.484 196.194 251.179 196.179 250.872C196.101 248.649 195.124 239.327 183.777 239.96Z" fill="#FFB8CA"/>
<path d="M118.701 257.835C118.701 257.835 106.983 256.636 104.963 250.446C104.898 250.235 104.881 250.008 104.914 249.787C105.195 247.709 107.159 237.003 117.118 238.519C117.514 241.721 117.866 245.082 118.147 248.596C118.401 251.79 118.581 254.874 118.701 257.835Z" fill="#FFB8CA"/>
<path d="M95.9919 243.351L87.695 253.46V246.035L95.9919 234.956V243.351Z" fill="#AF10FE"/>
<path opacity="0.2" d="M95.9919 243.351L87.695 253.46V246.035L95.9919 234.956V243.351Z" fill="black"/>
<path d="M87.6952 246.035H56.9478V253.455H87.6952V246.035Z" fill="#AF10FE"/>
<path d="M87.6952 246.035H56.9478V253.455H87.6952V246.035Z" fill="#AF10FE"/>
<path opacity="0.4" d="M87.6952 246.035H56.9478V253.455H87.6952V246.035Z" fill="white"/>
<path d="M56.9478 246.035H87.6951L95.992 234.956H68.6726L56.9478 246.035Z" fill="#AF10FE"/>
<path d="M219.674 244.933C226.187 244.933 231.466 243.961 231.466 242.762C231.466 241.564 226.187 240.592 219.674 240.592C213.161 240.592 207.882 241.564 207.882 242.762C207.882 243.961 213.161 244.933 219.674 244.933Z" fill="#D1D3D4"/>
<path d="M231.462 242.762C229.827 259.131 218.626 257.071 218.626 257.071C208.69 256.311 207.882 242.762 207.882 242.762C207.882 243.962 213.162 244.933 219.674 244.933C226.186 244.933 231.462 243.962 231.462 242.762Z" fill="#E6E7E8"/>
<path d="M128.251 36.4495H79.9821C72.159 36.4495 65.8172 43.894 65.8172 53.0774V105.522C65.8172 114.705 72.159 122.15 79.9821 122.15H128.251C136.074 122.15 142.416 114.705 142.416 105.522V53.0774C142.416 43.894 136.074 36.4495 128.251 36.4495Z" fill="#FCD6CA"/>
<mask id="mask0_6_446" style="mask-type:luminance" maskUnits="userSpaceOnUse" x="65" y="36" width="78" height="87">
<path d="M128.251 36.4495H79.9821C72.159 36.4495 65.8172 43.894 65.8172 53.0774V105.522C65.8172 114.705 72.159 122.15 79.9821 122.15H128.251C136.074 122.15 142.416 114.705 142.416 105.522V53.0774C142.416 43.894 136.074 36.4495 128.251 36.4495Z" fill="white"/>
</mask>
<g mask="url(#mask0_6_446)">
<path d="M54.8295 122.15C56.3265 119.075 61.5995 91.8376 70.7459 86.3858C70.7459 86.3858 77.7628 82.7088 79.0015 81.6456L96.7666 82.4144C96.7666 82.4144 100.382 84.5846 103.903 86.3682C109.547 87.7433 115.879 106.792 118.723 112.727L116.219 122.137L54.8295 122.15Z" fill="#AF10FE"/>
<path d="M81.6025 59.7461C81.4341 64.6444 81.5726 66.797 83.9901 70.206C88.9974 77.2877 94.0945 74.6255 94.0945 74.6255C101.044 70.4125 98.7089 58.8762 98.1588 53.6221C97.1146 51.6979 93.1964 50.38 93.4134 50.402C91.6458 49.6782 89.9643 48.692 88.4099 47.4674C86.0746 52.1548 82.5868 56.7676 81.6025 59.7461Z" fill="#FFB8CA"/>
<path d="M88.6943 93.5114C95.3632 87.4621 93.7652 79.0142 94.1133 74.6211C94.1133 74.6211 89.0012 77.2833 84.0089 70.2016C83.7619 69.8502 83.5149 69.4768 83.2604 69.0814C82.3799 72.7345 82.1518 76.5618 82.5905 80.3233C82.7666 82.0172 83.1172 83.6797 83.6346 85.2743C84.7088 88.4729 86.4482 91.3048 88.6943 93.5114Z" fill="#FFB8CA"/>
<path d="M98.4769 94.3988C93.0243 90.5197 94.9067 90.3747 88.6906 93.5202C88.6906 93.5202 93.3424 91.5169 94.1096 79.2338C94.4838 79.8049 96.864 82.1552 96.9351 82.8889C97.3018 84.4968 98.4769 89.9618 98.4769 94.3988Z" fill="#AF10FE"/>
<path opacity="0.2" d="M98.4769 94.3988C93.0243 90.5197 94.9067 90.3747 88.6906 93.5202C88.6906 93.5202 93.3424 91.5169 94.1096 79.2338C94.4838 79.8049 96.864 82.1552 96.9351 82.8889C97.3018 84.4968 98.4769 89.9618 98.4769 94.3988Z" fill="black"/>
<path d="M88.6943 93.5114C88.4586 93.7003 84.9295 89.9969 83.3914 90.4889C81.9655 90.9722 79.0315 92.1539 78.1071 93.9112C78.1633 93.9946 77.456 85.2656 79.286 81.0658L82.4071 76.7473C82.4071 76.7473 81.7784 86.8119 88.6943 93.5114Z" fill="#AF10FE"/>
<path opacity="0.2" d="M88.6943 93.5114C88.4586 93.7003 84.9295 89.9969 83.3914 90.4889C81.9655 90.9722 79.0315 92.1539 78.1071 93.9112C78.1633 93.9946 77.456 85.2656 79.286 81.0658L82.4071 76.7473C82.4071 76.7473 81.7784 86.8119 88.6943 93.5114Z" fill="black"/>
<path opacity="0.2" d="M69.1554 91.2577C71.9098 101.155 69.7841 111.936 69.9039 122.15C70.1509 112.178 72.2279 100.76 69.1554 91.2577Z" fill="black"/>
<path opacity="0.2" d="M106.396 94.7151C106.291 96.9117 106.298 99.2092 105.771 101.344C105.771 101.344 105.984 102.662 105.988 102.662C107.081 109.12 108.233 115.714 109.487 122.132C108.435 115.209 107.219 108.189 105.965 101.309V101.371C106.452 99.218 106.4 96.9424 106.396 94.7151Z" fill="black"/>
<g opacity="0.2">
<path d="M87.9687 93.9002L87.7235 93.9281L89.3479 113.551L89.593 113.523L87.9687 93.9002Z" fill="black"/>
</g>
<path opacity="0.2" d="M89.4727 99.754C89.4727 99.9427 89.5366 100.124 89.6503 100.257C89.764 100.391 89.9182 100.466 90.079 100.466C90.2398 100.466 90.394 100.391 90.5077 100.257C90.6214 100.124 90.6852 99.9427 90.6852 99.754C90.6852 99.5652 90.6214 99.3842 90.5077 99.2507C90.394 99.1173 90.2398 99.0423 90.079 99.0423C89.9182 99.0423 89.764 99.1173 89.6503 99.2507C89.5366 99.3842 89.4727 99.5652 89.4727 99.754Z" fill="black"/>
<path opacity="0.2" d="M90.6852 111.334C90.6972 111.513 90.7661 111.679 90.8781 111.801C90.9901 111.922 91.1371 111.99 91.2896 111.99C91.4422 111.99 91.5891 111.922 91.7011 111.801C91.8132 111.679 91.882 111.513 91.894 111.334C91.882 111.156 91.8132 110.989 91.7011 110.867C91.5891 110.746 91.4422 110.678 91.2896 110.678C91.1371 110.678 90.9901 110.746 90.8781 110.867C90.7661 110.989 90.6972 111.156 90.6852 111.334Z" fill="black"/>
<path d="M83.9901 70.2236C86.2356 80.9823 94.0946 79.225 94.0946 79.225C94.1694 78.1927 94.0946 74.6431 94.0946 74.6431C94.0946 74.6431 88.9974 77.3184 83.9901 70.2236Z" fill="#F9AAC0"/>
<path d="M98.1737 53.6397C99.7568 44.9457 79.4619 36.1288 76.6701 52.3657C76.6701 52.3657 74.5594 71.8798 70.9817 79.225C70.9817 79.225 67.4489 88.556 65.4018 92.4043C67.7969 87.8794 73.7997 85.2348 79.1625 81.6281C79.2486 81.2107 81.9655 77.3668 82.4034 76.7298L83.2529 69.0858C81.3817 65.892 81.6437 63.6735 81.6025 59.7461C82.86 56.2975 85.5432 52.9807 88.4249 47.4674C88.4249 47.4674 91.3963 49.6903 92.8371 50.1559C92.8371 50.1735 97.1521 51.755 98.1737 53.6397Z" fill="#272727"/>
<path d="M98.9484 63.2957L102.751 85.7664L96.7629 82.4144L94.1058 79.225V74.643C94.1058 74.643 99.173 72.486 98.9484 63.2957Z" fill="#272727"/>
<path d="M95.715 63.7921H95.3969C94.7503 63.6325 94.1565 63.2576 93.6866 62.7122C93.2168 62.1669 92.8907 61.4742 92.7473 60.717C92.6393 60.1561 92.6792 59.57 92.8617 59.0365C93.0442 58.5029 93.3606 58.0471 93.769 57.7296C96.0144 56.0998 100.314 57.1058 100.505 57.1498L100.677 57.1893L100.651 57.3914C100.161 61.6307 98.5031 63.7921 95.715 63.7921ZM97.4103 57.2025C96.2016 57.2025 94.8842 57.3914 93.9748 58.0547C93.6293 58.3249 93.362 58.7121 93.2082 59.1648C93.0545 59.6175 93.0217 60.1144 93.1141 60.5895C93.2381 61.2614 93.5242 61.8772 93.9383 62.3633C94.3524 62.8494 94.877 63.1853 95.4493 63.3308C98.1139 63.4714 99.7493 61.5165 100.251 57.4968C99.312 57.3135 98.362 57.2209 97.4103 57.22V57.2025Z" fill="#AF10FE"/>
<path d="M87.3283 63.7526C86.6893 63.7431 86.0564 63.6049 85.4572 63.344C84.4959 62.7857 83.6794 61.9356 83.0924 60.8819C82.5055 59.8283 82.1693 58.6094 82.119 57.3518V57.1585L82.2799 57.1234C88.2677 55.744 90.0827 57.8702 90.5805 58.8499C90.8421 59.3798 90.9541 59.9935 90.9003 60.6027C90.8465 61.212 90.6298 61.7856 90.2811 62.2413C89.9158 62.7354 89.4612 63.1275 88.9503 63.389C88.4395 63.6504 87.8853 63.7746 87.3283 63.7526ZM82.4969 57.5144C82.5589 58.6584 82.878 59.7627 83.4216 60.7149C83.9652 61.6671 84.7141 62.4333 85.5919 62.9355C87.6951 63.8141 89.2407 63.0145 89.9742 61.9602C90.2727 61.5747 90.4593 61.088 90.507 60.5701C90.5548 60.0522 90.4613 59.5298 90.2399 59.0783C89.3006 57.2288 86.4115 56.6709 82.4969 57.5144Z" fill="#AF10FE"/>
<path d="M92.8746 59.4386H90.7003V59.8779H92.8746V59.4386Z" fill="#AF10FE"/>
<path d="M82.3996 58.0767H79.4881V58.516H82.3996V58.0767Z" fill="#AF10FE"/>
<path d="M124.621 92.255L116.231 122.128H128.581L130.078 98.1813C130.078 98.1813 133.532 96.3054 136.866 91.2358C137.023 91.2358 140.496 86.4034 137.472 88.3407C137.742 88.5077 142.996 81.962 138.382 84.7823C138.382 84.7823 141.222 81.7072 140.882 80.3892C140.882 80.3892 140.579 79.4535 138.988 80.8769C139.864 80.2003 141.065 76.3564 137.585 79.7215C137.585 79.7215 131.56 84.9712 129.172 85.2831C129.052 83.8071 131.705 80.3277 129.022 77.7622C129.022 77.7622 128.648 77.6304 128.794 79.0801C128.682 83.2755 124.906 83.9696 124.621 92.255Z" fill="#FFB8CA"/>
<path d="M136.971 88.9865C136.472 89.5769 135.925 90.1067 135.336 90.568C134.757 91.0488 134.137 91.4581 133.487 91.7893C133.985 91.199 134.533 90.6691 135.122 90.2078C135.703 89.7303 136.322 89.3212 136.971 88.9865Z" fill="#F9AAC0"/>
<path d="M137.858 85.3842C137.155 86.1782 136.405 86.9123 135.612 87.5807C134.832 88.2662 134.008 88.8829 133.15 89.4258C133.852 88.6308 134.603 87.8967 135.395 87.2293C136.178 86.5461 137.001 85.9295 137.858 85.3842Z" fill="#F9AAC0"/>
<path d="M138.958 81.0701C138.052 82.1504 137.073 83.1435 136.032 84.0399C135.511 84.4792 134.98 84.9185 134.426 85.3095C133.877 85.7184 133.286 86.0432 132.667 86.276C133.219 85.8929 133.752 85.4749 134.265 85.0239L135.811 83.706C136.844 82.7922 137.873 81.896 138.958 81.0701Z" fill="#F9AAC0"/>
<path d="M132.439 85.3842C132.647 85.7076 132.817 86.0622 132.944 86.4385C133.076 86.8148 133.177 87.2045 133.247 87.6027C133.401 88.4001 133.37 89.2315 133.157 90.0101C133.12 89.6059 133.098 89.2193 133.049 88.8328C133 88.4462 132.952 88.064 132.88 87.6862C132.753 86.9261 132.585 86.1749 132.439 85.3842Z" fill="#F9AAC0"/>
<path d="M128.569 92.6372C128.905 92.124 129.169 91.5516 129.352 90.9414C129.533 90.3459 129.641 89.7232 129.673 89.0919C129.692 88.776 129.692 88.459 129.673 88.143C129.657 87.8235 129.626 87.5053 129.58 87.1897C129.539 86.8734 129.46 86.5615 129.411 86.2408C129.363 85.9201 129.25 85.6214 129.187 85.2963C129.329 85.5775 129.456 85.8762 129.584 86.1749C129.691 86.4823 129.785 86.7961 129.864 87.1151C130.016 87.7672 130.08 88.443 130.055 89.1183C130.017 89.7953 129.872 90.4581 129.628 91.0732C129.389 91.6881 129.026 92.225 128.569 92.6372Z" fill="#F9AAC0"/>
<path d="M130.085 98.2032C129.906 98.4035 129.691 98.5537 129.456 98.6425C129.225 98.7386 128.983 98.7963 128.738 98.8139C128.251 98.8601 127.763 98.7539 127.323 98.5063C127.558 98.4656 127.794 98.4392 128.03 98.4273C128.262 98.4273 128.487 98.4009 128.712 98.3789C129.164 98.3438 129.602 98.2955 130.085 98.2032Z" fill="#F9AAC0"/>
<path d="M77.8938 63.0497C80.1804 67.7942 84.2783 65.0178 81.9206 60.3216C79.634 55.5726 75.5361 58.3535 77.8938 63.0497Z" fill="#FFB8CA"/>
<path d="M78.9642 59.6582C78.9522 60.3236 79.0898 60.9809 79.3631 61.5639C79.6364 62.147 80.0358 62.6352 80.521 62.9794C80.6595 63.0892 80.8091 63.1771 80.9514 63.2957C80.7794 63.271 80.6093 63.2313 80.4424 63.1771C80.1414 63.0725 79.862 62.8964 79.6214 62.6598C79.3808 62.4231 79.1842 62.131 79.0438 61.8014C78.9035 61.4718 78.8223 61.1119 78.8054 60.744C78.7884 60.3761 78.8361 60.008 78.9454 59.6626L78.9642 59.6582Z" fill="#F9AAC0"/>
</g>
<path d="M147.143 156.75C147.798 156.75 148.329 155.725 148.329 154.461C148.329 153.197 147.798 152.172 147.143 152.172C146.488 152.172 145.956 153.197 145.956 154.461C145.956 155.725 146.488 156.75 147.143 156.75Z" fill="#272727"/>
<path d="M159.01 156.75C159.665 156.75 160.196 155.725 160.196 154.461C160.196 153.197 159.665 152.172 159.01 152.172C158.355 152.172 157.823 153.197 157.823 154.461C157.823 155.725 158.355 156.75 159.01 156.75Z" fill="#272727"/>
<path d="M144.422 150.771C144.658 150.229 144.999 149.76 145.417 149.4C145.851 149.003 146.368 148.754 146.914 148.68C147.198 148.642 147.485 148.673 147.759 148.77C148.032 148.866 148.286 149.027 148.505 149.242C148.715 149.439 148.896 149.675 149.04 149.941C149.169 150.203 149.274 150.482 149.351 150.771C149.13 150.6 148.976 150.393 148.771 150.235C148.589 150.065 148.394 149.918 148.187 149.796C147.817 149.571 147.399 149.48 146.985 149.532C146.549 149.599 146.124 149.747 145.728 149.971C145.294 150.213 144.871 150.481 144.422 150.771Z" fill="#272727"/>
<path d="M156.551 150.771C156.789 150.23 157.129 149.761 157.547 149.4C157.98 149.003 158.498 148.754 159.044 148.68C159.327 148.642 159.615 148.672 159.888 148.769C160.162 148.865 160.416 149.026 160.634 149.242C160.844 149.439 161.025 149.675 161.169 149.941C161.3 150.203 161.405 150.481 161.484 150.771C161.263 150.6 161.109 150.393 160.9 150.235C160.719 150.066 160.525 149.919 160.32 149.796C159.949 149.571 159.53 149.479 159.115 149.532C158.678 149.599 158.254 149.747 157.857 149.971C157.423 150.213 157 150.481 156.551 150.771Z" fill="#272727"/>
<path d="M152.334 155.291C152.334 156.982 152.209 158.67 151.959 160.335L151.798 160.124C152.405 160.155 153.011 160.212 153.617 160.313C152.957 160.418 152.292 160.484 151.626 160.51C151.729 158.75 151.965 157.003 152.334 155.291Z" fill="#F9AAC0"/>
<path d="M149.983 165.396H156.551C156.551 165.396 155.428 168.721 153.617 168.594C153.617 168.594 151.798 169.349 149.983 165.396Z" fill="white"/>
<path d="M95.7376 61.6307C96.0207 61.6307 96.2503 61.139 96.2503 60.5324C96.2503 59.9259 96.0207 59.4342 95.7376 59.4342C95.4544 59.4342 95.2249 59.9259 95.2249 60.5324C95.2249 61.139 95.4544 61.6307 95.7376 61.6307Z" fill="#272727"/>
<path d="M86.8493 61.6351C87.116 61.6351 87.3321 61.2024 87.3321 60.6686C87.3321 60.1349 87.116 59.7021 86.8493 59.7021C86.5827 59.7021 86.3666 60.1349 86.3666 60.6686C86.3666 61.2024 86.5827 61.6351 86.8493 61.6351Z" fill="#272727"/>
<path d="M92.272 61.2309C92.4142 61.5341 92.5415 61.846 92.6463 62.1579C92.751 62.4698 92.8783 62.7861 92.9831 63.1024C93.1964 63.735 93.3835 64.3808 93.5557 65.0354L93.6006 65.2111L93.4658 65.2814C92.9075 65.5746 92.3338 65.8256 91.7481 66.0326C92.2507 65.6208 92.7758 65.248 93.3199 64.9167L93.2338 65.1628C93.0242 64.5302 92.8334 63.8844 92.6687 63.2298C92.5826 62.9047 92.5078 62.5752 92.4367 62.2413C92.3656 61.9075 92.3207 61.5736 92.272 61.2309Z" fill="#F9AAC0"/>
<path d="M94.3752 67.4999L88.0132 66.7003C88.2786 67.5287 88.7692 68.2312 89.4091 68.6992C90.1802 69.2868 91.1134 69.5063 92.0178 69.3127C92.9222 69.1192 93.7294 68.5272 94.2742 67.658L94.3752 67.4999Z" fill="white"/>
<path d="M97.676 56.3326C97.167 56.2272 96.7067 56.0559 96.2427 55.9329C96.0153 55.8616 95.7839 55.8087 95.5503 55.7747C95.3128 55.7312 95.0703 55.7401 94.8355 55.8011C95.0251 55.5757 95.2807 55.4437 95.5503 55.4321C95.8113 55.4045 96.0744 55.4282 96.3288 55.5023C96.5777 55.5753 96.8188 55.6814 97.0473 55.8186C97.2776 55.9521 97.4895 56.1254 97.676 56.3326Z" fill="#272727"/>
<path d="M89.4914 55.9285C88.9338 56.0471 88.3987 56.0866 87.871 56.1745C87.61 56.2065 87.3512 56.2593 87.0963 56.3327C86.8351 56.397 86.5871 56.5209 86.3666 56.6973C86.4967 56.3844 86.7205 56.1388 86.9953 56.0076C87.2575 55.8676 87.5364 55.7758 87.8223 55.7352C88.1035 55.7 88.387 55.7 88.6681 55.7352C88.9486 55.7565 89.2255 55.8215 89.4914 55.9285Z" fill="#272727"/>
</svg>
